M48
; DRILL file {KiCad 9.0.2} date 2026-01-08T17:40:26+0300
; FORMAT={-:-/ absolute / metric / decimal}
; #@! TF.CreationDate,2026-01-08T17:40:26+03:00
; #@! TF.GenerationSoftware,Kicad,Pcbnew,9.0.2
; #@! TF.FileFunction,Plated,1,6,PTH
FMAT,2
METRIC
; #@! TA.AperFunction,Plated,PTH,ViaDrill
T1C0.300
; #@! TA.AperFunction,Plated,PTH,ComponentDrill
T2C0.300
; #@! TA.AperFunction,Plated,PTH,ViaDrill
T3C0.350
; #@! TA.AperFunction,Plated,PTH,ViaDrill
T4C0.400
; #@! TA.AperFunction,Plated,PTH,ViaDrill
T5C0.500
; #@! TA.AperFunction,Plated,PTH,ComponentDrill
T6C0.500
; #@! TA.AperFunction,Plated,PTH,ComponentDrill
T7C0.600
; #@! TA.AperFunction,Plated,PTH,ComponentDrill
T8C0.800
; #@! TA.AperFunction,Plated,PTH,ComponentDrill
T9C0.890
; #@! TA.AperFunction,Plated,PTH,ComponentDrill
T10C1.000
; #@! TA.AperFunction,Plated,PTH,ComponentDrill
T11C1.500
; #@! TA.AperFunction,Plated,PTH,ComponentDrill
T12C1.570
; #@! TA.AperFunction,Plated,PTH,ComponentDrill
T13C3.200
%
G90
G05
T1
X41.2Y-167.9
X41.2Y-168.7
X41.2Y-169.5
X41.2Y-170.3
X41.2Y-171.1
X41.2Y-172.7
X41.2Y-174.3
X41.2Y-175.1
X41.2Y-175.9
X41.2Y-176.7
X41.2Y-177.5
X41.2Y-178.3
X41.2Y-179.1
X41.2Y-179.9
X41.3Y-144.6
X41.3Y-145.4
X41.3Y-146.2
X41.3Y-147.0
X41.3Y-147.8
X41.3Y-148.6
X41.3Y-149.4
X41.3Y-150.2
X41.3Y-151.8
X41.3Y-153.4
X41.3Y-154.2
X41.3Y-155.0
X41.3Y-155.8
X41.3Y-156.6
X42.0Y-167.9
X42.0Y-168.7
X42.0Y-169.5
X42.0Y-170.3
X42.0Y-171.1
X42.0Y-171.9
X42.0Y-172.7
X42.0Y-173.5
X42.0Y-174.3
X42.0Y-175.1
X42.0Y-175.9
X42.0Y-176.7
X42.0Y-177.5
X42.0Y-178.3
X42.0Y-179.1
X42.0Y-179.9
X42.1Y-144.6
X42.1Y-145.4
X42.1Y-146.2
X42.1Y-147.0
X42.1Y-147.8
X42.1Y-149.4
X42.1Y-150.2
X42.1Y-151.0
X42.1Y-151.8
X42.1Y-152.6
X42.1Y-154.2
X42.1Y-155.0
X42.1Y-155.8
X42.1Y-156.6
X42.8Y-168.7
X42.8Y-169.5
X42.8Y-170.3
X42.8Y-171.9
X42.8Y-172.7
X42.8Y-173.5
X42.8Y-174.3
X42.8Y-175.1
X42.8Y-175.9
X42.8Y-176.7
X42.8Y-177.5
X42.8Y-179.9
X42.9Y-144.6
X42.9Y-145.4
X42.9Y-146.2
X42.9Y-147.0
X42.9Y-147.8
X42.9Y-148.6
X42.9Y-149.4
X42.9Y-150.2
X42.9Y-151.0
X42.9Y-151.8
X42.9Y-152.6
X42.9Y-154.2
X42.9Y-155.0
X42.9Y-155.8
X43.1Y-165.9
X46.0Y-167.9
X46.0Y-168.7
X46.0Y-169.5
X46.0Y-170.3
X46.0Y-171.1
X46.0Y-171.9
X46.0Y-172.7
X46.0Y-173.5
X46.0Y-174.3
X46.0Y-175.1
X46.0Y-175.9
X46.0Y-176.7
X46.0Y-177.5
X46.0Y-179.1
X46.1Y-144.6
X46.1Y-145.4
X46.1Y-146.2
X46.1Y-147.0
X46.1Y-147.8
X46.1Y-148.6
X46.1Y-149.4
X46.1Y-151.0
X46.1Y-151.8
X46.1Y-152.6
X46.1Y-153.4
X46.1Y-154.2
X46.1Y-155.0
X46.1Y-155.8
X46.1Y-156.6
X46.8Y-167.9
X46.8Y-168.7
X46.8Y-169.5
X46.8Y-170.3
X46.8Y-171.1
X46.8Y-171.9
X46.8Y-172.7
X46.8Y-173.5
X46.8Y-174.3
X46.8Y-175.1
X46.8Y-175.9
X46.8Y-176.7
X46.8Y-177.5
X46.8Y-179.1
X46.9Y-135.3
X46.9Y-151.0
X46.9Y-144.6
X46.9Y-145.4
X46.9Y-146.2
X46.9Y-147.0
X46.9Y-147.8
X46.9Y-150.2
X46.9Y-151.8
X46.9Y-152.6
X46.9Y-153.4
X46.9Y-154.2
X46.9Y-155.0
X46.9Y-155.8
X46.9Y-156.6
X47.6Y-136.0
X47.6Y-167.9
X47.6Y-168.7
X47.6Y-169.5
X47.6Y-170.3
X47.6Y-171.1
X47.6Y-172.7
X47.6Y-174.3
X47.6Y-175.1
X47.6Y-175.9
X47.6Y-176.7
X47.6Y-177.5
X47.6Y-178.3
X47.6Y-179.1
X47.6Y-179.9
X47.7Y-132.3
X47.7Y-132.8
X47.7Y-144.6
X47.7Y-145.4
X47.7Y-146.2
X47.7Y-147.0
X47.7Y-147.8
X47.7Y-148.6
X47.7Y-149.4
X47.7Y-151.8
X47.7Y-153.4
X47.7Y-154.2
X47.7Y-155.0
X47.7Y-155.8
X47.7Y-156.6
X49.7Y-135.2
X49.9Y-136.6
X50.2Y-129.4
X50.7Y-129.1
X50.7Y-135.9
X51.2Y-129.5
X51.7Y-135.2
X52.4Y-130.6
X53.1Y-133.8
X53.4Y-133.3
X53.8Y-131.8
X54.3Y-132.3
X54.7Y-134.9
X55.0Y-131.1
X55.9Y-131.32
X56.2Y-125.4
X56.6Y-133.2
X57.4Y-132.1
X57.5Y-99.4
X58.898Y-129.3
X59.342Y-174.746
X59.6Y-126.5
X60.35Y-146.509
X60.6Y-123.5
X60.9Y-155.2
X60.9Y-156.0
X60.9Y-156.8
X60.9Y-157.6
X60.9Y-158.4
X60.9Y-159.2
X60.9Y-160.0
X60.9Y-160.8
X60.9Y-162.4
X60.9Y-163.2
X60.9Y-164.0
X60.9Y-164.8
X60.9Y-165.6
X60.9Y-166.4
X60.9Y-167.2
X60.9Y-168.0
X60.9Y-168.8
X60.9Y-169.6
X61.4Y-141.2
X61.7Y-156.8
X61.7Y-157.6
X61.7Y-158.4
X61.7Y-159.2
X61.7Y-160.0
X61.7Y-160.8
X61.7Y-164.0
X61.7Y-164.8
X61.7Y-165.6
X61.7Y-166.4
X61.7Y-167.2
X61.7Y-168.0
X61.7Y-168.8
X62.0Y-130.9
X62.4Y-134.9
X62.4Y-138.662
X62.5Y-140.5
X62.5Y-154.4
X62.5Y-156.8
X62.5Y-157.6
X62.5Y-158.4
X62.5Y-159.2
X62.5Y-160.0
X62.5Y-160.8
X62.5Y-162.4
X62.5Y-163.2
X62.5Y-164.8
X62.5Y-165.6
X62.5Y-166.4
X62.5Y-167.2
X62.5Y-168.0
X63.3Y-156.0
X63.3Y-157.6
X63.3Y-160.0
X63.3Y-163.2
X63.3Y-164.0
X63.3Y-164.8
X63.3Y-166.4
X63.3Y-167.2
X63.3Y-168.0
X63.8Y-130.0
X63.8Y-142.5
X64.083Y-149.2
X64.1Y-154.4
X64.1Y-155.2
X64.1Y-156.0
X64.1Y-156.8
X64.1Y-157.6
X64.1Y-158.4
X64.1Y-159.2
X64.1Y-160.0
X64.1Y-161.6
X64.1Y-162.4
X64.1Y-163.2
X64.1Y-164.0
X64.1Y-164.8
X64.1Y-165.6
X64.1Y-169.6
X64.2Y-126.225
X64.2Y-146.15
X64.45Y-138.0
X64.7Y-117.4
X64.715Y-105.7
X64.8Y-114.2
X64.9Y-154.4
X64.9Y-155.2
X64.9Y-156.0
X64.9Y-156.8
X64.9Y-157.6
X64.9Y-158.4
X64.9Y-159.2
X64.9Y-160.0
X64.9Y-160.8
X64.9Y-161.6
X64.9Y-164.0
X64.9Y-164.8
X64.9Y-165.6
X64.9Y-166.4
X64.9Y-167.2
X65.1Y-129.925
X65.1Y-130.925
X65.1Y-150.2
X65.4Y-135.7
X65.597Y-148.897
X65.7Y-156.8
X65.7Y-158.4
X65.7Y-159.2
X65.7Y-160.0
X65.7Y-160.8
X65.7Y-161.6
X65.7Y-162.4
X65.7Y-163.2
X65.7Y-164.8
X65.7Y-165.6
X65.7Y-166.4
X65.7Y-168.8
X65.701Y-164.0
X65.8Y-140.3
X66.0Y-119.9
X66.3Y-176.875
X66.4Y-143.3
X66.5Y-132.8
X66.5Y-154.4
X66.5Y-155.2
X66.5Y-156.0
X66.5Y-156.8
X66.5Y-157.6
X66.5Y-158.4
X66.5Y-159.2
X66.5Y-160.0
X66.5Y-160.8
X66.5Y-161.6
X66.5Y-162.4
X66.5Y-163.2
X66.5Y-164.0
X66.5Y-164.8
X66.5Y-165.6
X66.5Y-166.4
X66.9Y-123.6
X66.9Y-124.8
X67.0Y-152.1
X67.27Y-119.9
X67.3Y-154.4
X67.3Y-155.2
X67.3Y-156.0
X67.3Y-156.8
X67.3Y-157.6
X67.3Y-158.4
X67.3Y-159.2
X67.3Y-160.0
X67.3Y-160.8
X67.3Y-161.6
X67.3Y-162.4
X67.3Y-164.0
X67.3Y-164.8
X67.3Y-165.6
X67.3Y-168.0
X67.5Y-133.8
X67.5Y-141.3
X67.6Y-152.8
X67.675Y-127.025
X67.775Y-131.925
X67.8Y-122.5
X67.8Y-151.9
X67.825Y-129.375
X67.875Y-129.925
X68.0Y-133.4
X68.1Y-154.4
X68.1Y-155.2
X68.1Y-157.6
X68.1Y-159.2
X68.1Y-160.0
X68.1Y-160.8
X68.1Y-161.6
X68.1Y-162.4
X68.1Y-164.0
X68.1Y-164.8
X68.1Y-166.4
X68.1Y-169.6
X68.1Y-171.3
X68.5Y-117.5
X68.5Y-143.2
X68.515Y-105.5
X68.6Y-114.075
X68.7Y-134.6
X68.9Y-154.4
X68.9Y-155.2
X68.9Y-158.4
X68.9Y-159.2
X68.9Y-160.0
X68.9Y-160.8
X68.9Y-161.6
X68.9Y-162.4
X68.9Y-163.2
X68.9Y-164.0
X68.9Y-164.8
X68.9Y-166.4
X68.9Y-167.2
X69.7Y-154.4
X69.7Y-155.2
X69.7Y-156.0
X69.7Y-156.8
X69.7Y-157.6
X69.7Y-158.4
X69.7Y-159.2
X69.7Y-160.0
X69.7Y-160.8
X69.7Y-161.6
X69.7Y-162.4
X69.7Y-163.2
X69.7Y-164.0
X69.7Y-164.8
X69.7Y-165.6
X69.7Y-166.4
X69.7Y-167.2
X69.7Y-168.8
X69.8Y-98.5
X69.8Y-120.1
X69.8Y-140.6
X69.8Y-142.5
X69.8Y-143.2
X70.1Y-134.8
X70.275Y-125.825
X70.5Y-154.4
X70.5Y-155.2
X70.5Y-156.0
X70.5Y-157.6
X70.5Y-158.4
X70.5Y-159.2
X70.5Y-160.0
X70.5Y-160.8
X70.5Y-161.6
X70.5Y-162.4
X70.5Y-163.2
X70.5Y-164.0
X70.5Y-164.8
X70.5Y-165.6
X70.5Y-166.4
X70.5Y-167.2
X70.5Y-168.0
X70.7Y-142.5
X71.07Y-120.1
X71.3Y-154.4
X71.3Y-155.2
X71.3Y-156.0
X71.3Y-156.8
X71.3Y-159.2
X71.3Y-160.0
X71.3Y-160.8
X71.3Y-161.6
X71.3Y-162.4
X71.3Y-163.2
X71.3Y-164.0
X71.3Y-164.8
X71.3Y-165.6
X71.3Y-166.4
X71.3Y-167.2
X71.3Y-168.0
X71.675Y-124.625
X71.775Y-125.825
X71.775Y-134.325
X71.8Y-135.9
X72.1Y-155.2
X72.1Y-156.0
X72.1Y-156.8
X72.1Y-157.6
X72.1Y-159.2
X72.1Y-160.0
X72.1Y-160.8
X72.1Y-161.6
X72.1Y-162.4
X72.1Y-163.2
X72.1Y-164.0
X72.1Y-164.8
X72.1Y-165.6
X72.1Y-166.4
X72.1Y-167.2
X72.1Y-169.6
X72.275Y-124.625
X72.295Y-134.425
X72.4Y-117.5
X72.415Y-105.498
X72.5Y-114.2
X72.7Y-135.8
X72.724Y-134.867
X72.9Y-155.2
X72.9Y-156.0
X72.9Y-156.8
X72.9Y-157.6
X72.9Y-158.4
X72.9Y-159.2
X72.9Y-160.0
X72.9Y-160.8
X72.9Y-161.6
X72.9Y-162.4
X72.9Y-163.2
X72.9Y-164.0
X72.9Y-164.8
X72.9Y-165.6
X72.9Y-166.4
X72.9Y-167.2
X72.9Y-168.0
X72.9Y-168.8
X72.9Y-169.6
X73.142Y-134.575
X73.275Y-125.925
X73.475Y-124.925
X73.7Y-156.0
X73.7Y-156.8
X73.7Y-157.6
X73.7Y-158.4
X73.7Y-159.2
X73.7Y-160.0
X73.7Y-160.8
X73.7Y-161.6
X73.7Y-162.4
X73.7Y-163.2
X73.7Y-164.0
X73.7Y-164.8
X73.7Y-165.6
X73.7Y-166.4
X73.7Y-167.2
X73.7Y-168.0
X73.7Y-168.8
X73.715Y-102.2
X73.9Y-170.6
X73.975Y-135.525
X74.175Y-124.825
X74.275Y-134.525
X74.455Y-102.3
X74.5Y-154.4
X74.5Y-156.0
X74.5Y-156.8
X74.5Y-157.6
X74.5Y-158.4
X74.5Y-159.2
X74.5Y-160.0
X74.5Y-160.8
X74.5Y-161.6
X74.5Y-162.4
X74.5Y-163.2
X74.5Y-164.8
X74.5Y-165.6
X74.5Y-166.4
X74.5Y-168.0
X74.775Y-125.825
X75.075Y-134.725
X75.3Y-156.0
X75.3Y-156.8
X75.3Y-157.6
X75.3Y-160.0
X75.3Y-164.0
X75.3Y-165.6
X75.3Y-166.4
X75.3Y-168.0
X75.975Y-126.725
X76.1Y-155.2
X76.1Y-156.0
X76.1Y-157.6
X76.1Y-161.6
X76.1Y-165.6
X76.1Y-168.0
X76.1Y-168.8
X76.1Y-169.6
X76.115Y-105.5
X76.2Y-114.3
X76.2Y-117.4
X76.275Y-128.925
X76.275Y-131.825
X76.275Y-132.375
X76.275Y-132.925
X76.6Y-137.0
X76.775Y-131.425
X76.9Y-137.7
X77.8Y-124.9
X77.8Y-128.6
X78.2Y-136.0
X78.2Y-138.8
X78.4Y-134.1
X78.7Y-124.9
X78.8Y-150.8
X79.3Y-125.0
X79.775Y-121.8
X80.9Y-143.9
X80.9Y-146.4
X80.9Y-148.9
X80.9Y-149.7
X81.0Y-144.9
X81.0Y-145.7
X81.0Y-147.0
X81.0Y-148.2
X81.2Y-142.2
X81.378Y-153.687
X81.4Y-143.8
X81.5Y-147.6
X81.575Y-129.425
X81.675Y-123.5
X81.7Y-145.0
X81.8Y-144.3
X81.9Y-141.6
X81.9Y-142.6
X81.9Y-143.8
X81.9Y-148.9
X81.9Y-150.2
X82.0Y-143.2
X82.5Y-147.6
X83.383Y-153.639
X84.4Y-114.1
X84.7Y-145.4
X85.6Y-110.6
X85.6Y-151.0
X86.0Y-109.402
X86.5Y-145.5
X87.2Y-126.1
X87.7Y-114.175
X88.3Y-110.6
X88.4Y-145.5
X88.45Y-125.95
X88.5Y-108.1
X88.5Y-112.625
X88.6Y-111.6
X88.8Y-109.7
X89.1Y-123.3
X89.175Y-114.15
X89.7Y-185.9
X89.7Y-186.9
X89.8Y-102.4
X89.8Y-115.3
X89.8Y-132.6
X89.8Y-186.4
X90.1Y-113.6
X90.2Y-180.3
X90.3Y-184.2
X91.0Y-151.0
X91.4Y-119.4
X91.4Y-122.4
X91.4Y-139.9
X91.5Y-115.3
X91.7Y-114.1
X91.72Y-120.0
X91.72Y-120.6
X91.9Y-124.9
X92.1Y-121.6
X92.4Y-124.3
X92.6Y-102.5
X92.7Y-121.5
X92.802Y-119.5
X92.9Y-124.9
X93.1Y-108.0
X93.1Y-161.0
X93.2Y-144.6
X93.4Y-114.0
X93.7Y-102.5
X94.3Y-113.8
X94.8Y-157.1
X95.55Y-129.45
X95.6Y-111.2
X95.6Y-112.2
X95.6Y-155.3
X95.7Y-109.9
X95.7Y-128.3
X95.7Y-136.3
X95.8Y-134.3
X95.8Y-138.3
X95.9Y-111.7
X96.0Y-130.6
X96.6Y-102.4
X97.887Y-115.8
X98.1Y-139.9
X98.9Y-113.3
X99.2Y-122.7
X99.4Y-129.6
X99.4Y-130.1
X99.4Y-135.1
X99.62Y-115.0
X99.9Y-105.6
X99.9Y-135.6
X100.4Y-130.1
X100.4Y-134.6
X100.4Y-135.1
X100.4Y-135.6
X100.9Y-131.6
X100.9Y-132.1
X100.9Y-133.1
X100.9Y-133.6
X100.9Y-134.6
X100.9Y-135.1
X100.9Y-135.6
X101.1Y-108.0
X101.4Y-129.1
X101.4Y-130.1
X101.4Y-131.1
X101.4Y-134.6
X101.4Y-135.6
X101.7Y-111.4
X101.7Y-112.1
X101.7Y-115.7
X101.9Y-131.1
X102.3Y-114.5
X102.4Y-133.6
X102.7Y-136.1
X102.9Y-105.0
X102.9Y-133.6
X103.0Y-106.1
X103.4Y-132.6
X103.4Y-133.1
X103.725Y-116.2
X104.6Y-98.9
X104.6Y-140.1
X104.601Y-125.099
X104.9Y-108.7
X105.097Y-105.1
X105.751Y-109.649
X105.8Y-118.1
X105.9Y-145.9
X106.925Y-108.5
X107.575Y-108.5
X107.6Y-111.425
X107.6Y-112.075
X107.6Y-114.0
X107.8Y-164.8
X108.1Y-102.2
X108.6Y-113.197
X109.0Y-102.6
X109.6Y-102.7
X109.905Y-171.0
X109.905Y-175.0
X109.905Y-178.9
X109.905Y-180.9
X109.905Y-183.0
X111.105Y-110.4
X111.302Y-112.7
X111.352Y-115.5
X112.4Y-96.6
X112.4Y-98.8
X112.5Y-103.2
X112.6Y-104.3
X112.6Y-107.7
X112.95Y-101.65
X113.2Y-109.9
X113.3Y-116.2
X113.4Y-112.0
X115.975Y-111.9
X115.975Y-113.7
T2
X24.785Y-171.47
X24.785Y-172.63
X25.365Y-172.05
X25.945Y-171.47
X25.945Y-172.63
X29.217Y-130.67
X29.217Y-131.83
X29.797Y-131.25
X30.04Y-115.6
X30.04Y-116.76
X30.377Y-130.67
X30.377Y-131.83
X30.62Y-116.18
X31.2Y-115.6
X31.2Y-116.76
X41.855Y-185.47
X41.855Y-186.63
X42.435Y-186.05
X43.015Y-185.47
X43.015Y-186.63
X43.955Y-108.17
X43.955Y-109.33
X44.535Y-108.75
X45.115Y-108.17
X45.115Y-109.33
X91.825Y-109.95
X91.825Y-110.925
X91.825Y-111.9
X92.8Y-109.95
X92.8Y-110.925
X92.8Y-111.9
X93.775Y-109.95
X93.775Y-110.925
X93.775Y-111.9
T3
X42.7Y-183.7
X44.5Y-150.08
X102.9Y-119.0
T4
X20.0Y-132.8
X20.1Y-127.2
X20.1Y-135.6
X20.4Y-111.8
X20.5Y-115.9
X20.5Y-121.0
X20.825Y-174.4
X21.8Y-184.3
X21.8Y-185.2
X21.8Y-186.1
X22.4Y-186.8
X22.5Y-152.9
X22.6Y-151.8
X22.7Y-146.2
X22.7Y-186.0
X22.8Y-154.2
X22.8Y-185.1
X22.9Y-184.3
X23.0Y-143.0
X23.1Y-147.5
X23.2Y-142.1
X23.3Y-136.3
X23.4Y-145.2
X23.4Y-186.8
X23.5Y-127.6
X23.5Y-151.6
X23.7Y-155.7
X23.8Y-184.3
X23.8Y-185.1
X23.9Y-133.0
X23.9Y-186.0
X24.0Y-174.6
X24.1Y-121.2
X24.5Y-146.9
X24.5Y-151.6
X24.6Y-186.8
X24.7Y-140.9
X24.7Y-143.0
X24.8Y-145.1
X24.8Y-183.4
X24.9Y-182.4
X25.2Y-111.8
X25.2Y-116.0
X25.4Y-119.7
X25.5Y-125.9
X25.7Y-145.4
X25.7Y-186.8
X25.8Y-182.3
X25.9Y-183.4
X26.0Y-168.5
X26.219Y-174.681
X26.7Y-128.2
X26.7Y-143.3
X26.8Y-153.6
X27.0Y-109.3
X27.1Y-141.9
X27.1Y-147.1
X27.1Y-148.0
X27.1Y-166.2
X27.1Y-170.1
X27.4Y-144.7
X27.9Y-147.1
X27.9Y-148.0
X27.9Y-150.1
X28.0Y-151.0
X28.0Y-153.9
X28.0Y-181.8
X28.0Y-182.8
X28.0Y-183.6
X28.3Y-126.9
X28.4Y-114.2
X28.6Y-142.0
X28.7Y-147.1
X28.7Y-148.0
X28.9Y-150.1
X29.0Y-181.8
X29.0Y-182.8
X29.0Y-183.6
X29.497Y-112.6
X29.5Y-145.1
X29.6Y-153.5
X30.3Y-151.7
X30.3Y-175.4
X30.5Y-147.6
X30.6Y-141.4
X30.6Y-144.6
X30.6Y-150.7
X30.675Y-135.6
X30.7Y-106.1
X31.4Y-108.2
X31.4Y-143.7
X31.5Y-150.0
X31.5Y-184.9
X31.5Y-185.8
X31.6Y-146.9
X31.7Y-141.3
X31.9Y-137.2
X32.37Y-122.046
X32.4Y-184.8
X32.4Y-185.7
X32.5Y-144.4
X32.5Y-147.6
X32.5Y-150.7
X33.0Y-118.6
X33.1Y-143.6
X33.1Y-146.9
X33.1Y-149.8
X33.2Y-141.3
X33.3Y-184.9
X33.4Y-185.7
X33.5Y-179.4
X34.2Y-185.1
X34.3Y-185.9
X34.9Y-175.3
X35.0Y-185.4
X35.1Y-137.4
X35.1Y-138.4
X35.2Y-178.9
X35.7Y-185.8
X35.8Y-184.9
X36.1Y-137.5
X36.1Y-138.3
X36.3Y-175.3
X36.5Y-186.0
X36.9Y-185.0
X37.0Y-137.5
X37.2Y-138.3
X37.2Y-178.9
X37.3Y-107.0
X37.464Y-175.3
X38.1Y-112.7
X38.2Y-137.5
X38.2Y-138.3
X38.7Y-178.9
X39.6Y-177.4
X39.9Y-186.8
X40.1Y-141.7
X40.2Y-143.3
X40.3Y-137.2
X40.5Y-121.2
X40.7Y-181.8
X41.1Y-119.8
X41.2Y-120.8
X41.5Y-123.4
X41.8Y-122.6
X41.9Y-134.2
X42.16Y-182.0
X42.4Y-129.9
X42.5Y-118.2
X42.5Y-121.8
X42.5Y-123.4
X42.9Y-122.6
X43.3Y-130.0
X43.6Y-121.8
X43.6Y-123.4
X43.7Y-122.5
X44.0Y-126.7
X44.6Y-143.3
X45.0Y-183.9
X45.1Y-184.7
X45.4Y-185.4
X45.7Y-187.2
X45.9Y-112.502
X46.0Y-183.5
X46.4Y-127.3
X46.4Y-129.8
X46.5Y-110.6
X47.4Y-129.9
X47.975Y-185.4
X48.1Y-115.2
X48.1Y-116.1
X48.1Y-117.1
X48.1Y-121.4
X48.2Y-120.5
X48.3Y-119.6
X48.502Y-183.802
X48.8Y-127.2
X49.1Y-119.5
X49.1Y-120.3
X49.6Y-131.8
X49.6Y-132.6
X49.6Y-133.4
X49.7Y-112.8
X49.8Y-119.4
X50.4Y-120.0
X50.4Y-131.8
X50.4Y-132.6
X50.4Y-133.4
X50.7Y-184.0
X50.8Y-115.0
X50.8Y-116.0
X50.8Y-119.3
X50.883Y-112.517
X51.3Y-131.8
X51.3Y-132.6
X51.3Y-133.4
X51.5Y-187.7
X51.8Y-124.675
X51.9Y-123.125
X52.6Y-184.3
X52.6Y-185.3
X52.6Y-186.3
X52.6Y-187.3
X53.4Y-124.675
X53.519Y-123.019
X54.0Y-120.6
X57.4Y-183.7
X57.7Y-122.0
X57.9Y-100.6
X58.1Y-185.5
X58.7Y-186.1
X58.7Y-187.6
X58.9Y-186.9
X59.6Y-185.8
X59.6Y-187.6
X59.7Y-186.6
X60.6Y-186.1
X60.6Y-187.0
X61.3Y-185.7
X61.4Y-187.3
X64.3Y-147.2
X65.5Y-182.6
X65.5Y-183.8
X66.3Y-181.278
X66.4Y-182.6
X66.4Y-183.7
X66.9Y-174.2
X67.0Y-173.097
X67.4Y-182.5
X68.035Y-176.268
X68.3Y-182.5
X68.941Y-176.31
X69.2Y-178.5
X69.8Y-174.0
X69.8Y-175.2
X69.9Y-128.1
X69.9Y-129.4
X69.9Y-130.8
X69.9Y-171.5
X70.0Y-132.1
X70.022Y-176.425
X70.6Y-173.1
X70.6Y-181.6
X70.8Y-174.8
X71.0Y-179.3
X71.2Y-130.8
X71.3Y-129.4
X71.3Y-176.3
X71.3Y-177.8
X71.4Y-128.1
X71.55Y-171.524
X71.6Y-132.1
X71.7Y-174.8
X71.7Y-181.6
X71.8Y-183.6
X71.9Y-179.9
X72.8Y-130.7
X72.8Y-132.1
X72.9Y-129.4
X72.9Y-181.5
X73.0Y-128.1
X73.0Y-177.8
X73.1Y-172.475
X73.1Y-179.2
X73.2Y-176.2
X73.5Y-174.0
X74.0Y-129.4
X74.0Y-130.8
X74.1Y-128.1
X74.1Y-132.1
X74.2Y-176.1
X74.3Y-179.3
X74.6Y-181.6
X74.9Y-176.2
X75.8Y-176.0
X76.5Y-176.5
X76.9Y-181.6
X76.9Y-182.7
X76.9Y-183.8
X76.9Y-184.7
X77.0Y-180.5
X77.9Y-167.9
X78.5Y-173.0
X78.7Y-180.4
X78.7Y-181.5
X78.7Y-182.8
X78.7Y-183.9
X79.3Y-169.4
X79.9Y-171.0
X80.6Y-158.5
X80.6Y-161.3
X80.6Y-163.5
X80.9Y-167.8
X81.5Y-173.1
X82.4Y-169.4
X82.9Y-170.9
X83.5Y-161.3
X83.6Y-158.5
X83.7Y-163.6
X84.0Y-167.9
X84.3Y-173.1
X84.9Y-99.0
X87.6Y-119.5
X87.8Y-120.4
X87.9Y-121.3
X103.0Y-124.7
X104.5Y-127.2
X107.4Y-156.1
X107.477Y-153.577
X107.477Y-158.722
X107.5Y-161.3
X108.3Y-134.9
X110.45Y-159.5
T5
X21.6Y-92.1
X24.9Y-91.1
X29.6Y-91.1
X31.3Y-102.7
X32.2Y-91.0
X32.4Y-105.7
X32.5Y-104.5
X33.383Y-102.049
X33.5Y-105.3
X33.8Y-90.9
X33.9Y-103.8
X34.6Y-102.1
X34.8Y-105.6
X35.0Y-103.2
X35.1Y-104.3
X35.7Y-100.7
X35.9Y-102.2
X36.4Y-103.6
X36.7Y-90.8
X38.3Y-90.9
X39.9Y-90.8
X41.3Y-90.8
X41.3Y-92.3
X48.0Y-106.6
X48.9Y-98.0
X53.7Y-98.0
X54.15Y-111.05
X55.1Y-110.6
X55.265Y-112.335
X56.417Y-111.182
X85.6Y-92.7
X86.4Y-94.1
X86.4Y-96.1
X86.4Y-97.6
X86.4Y-98.7
X101.0Y-92.4
X101.0Y-93.5
X101.0Y-95.0
X101.0Y-96.5
X101.0Y-98.0
T6
X97.8Y-113.0
X97.8Y-114.9
T8
X36.0Y-123.9
X36.0Y-125.9
X36.0Y-127.9
X36.0Y-129.9
X36.0Y-131.9
X36.0Y-133.9
X36.0Y-135.9
X38.0Y-123.9
X38.0Y-125.9
X38.0Y-127.9
X38.0Y-129.9
X38.0Y-131.9
X38.0Y-133.9
X38.0Y-135.9
X84.5Y-146.9
X84.5Y-148.9
X84.7Y-141.4
X84.7Y-143.4
X86.5Y-146.9
X86.5Y-148.9
X86.7Y-141.4
X86.7Y-143.4
X88.5Y-146.9
X88.5Y-148.9
X88.7Y-141.4
X88.7Y-143.4
X90.5Y-146.9
X90.5Y-148.9
X90.7Y-141.4
X90.7Y-143.4
X92.5Y-146.9
X92.5Y-148.9
X92.7Y-141.4
X92.7Y-143.4
X94.5Y-146.9
X94.5Y-148.9
X94.7Y-141.4
X94.7Y-143.4
X96.5Y-146.9
X96.5Y-148.9
X96.7Y-141.4
X96.7Y-143.4
X97.9Y-152.9
X97.9Y-154.9
X97.9Y-156.9
X97.9Y-158.9
X97.9Y-160.9
X97.9Y-162.9
X97.9Y-164.9
X97.9Y-166.9
X97.9Y-168.9
X97.9Y-170.9
X97.9Y-172.9
X97.9Y-174.9
X97.9Y-176.9
X97.9Y-178.9
X98.5Y-146.9
X98.5Y-148.9
X98.7Y-141.4
X98.7Y-143.4
X99.9Y-152.9
X99.9Y-154.9
X99.9Y-156.9
X99.9Y-158.9
X99.9Y-160.9
X99.9Y-162.9
X99.9Y-164.9
X99.9Y-166.9
X99.9Y-168.9
X99.9Y-170.9
X99.9Y-172.9
X99.9Y-174.9
X99.9Y-176.9
X99.9Y-178.9
X100.5Y-146.9
X100.5Y-148.9
X100.7Y-141.4
X100.7Y-143.4
X102.5Y-146.9
X102.5Y-148.9
X102.7Y-141.4
X102.7Y-143.4
X103.4Y-153.0
X103.4Y-155.0
X103.4Y-157.0
X103.4Y-159.0
X103.4Y-161.0
X103.4Y-163.0
X103.4Y-165.0
X103.4Y-167.0
X103.4Y-169.0
X103.4Y-171.0
X103.4Y-173.0
X103.4Y-175.0
X103.4Y-177.0
X103.4Y-179.0
X104.5Y-146.9
X104.5Y-148.9
X104.7Y-141.4
X104.7Y-143.4
X105.4Y-153.0
X105.4Y-155.0
X105.4Y-157.0
X105.4Y-159.0
X105.4Y-161.0
X105.4Y-163.0
X105.4Y-165.0
X105.4Y-167.0
X105.4Y-169.0
X105.4Y-171.0
X105.4Y-173.0
X105.4Y-175.0
X105.4Y-177.0
X105.4Y-179.0
X106.5Y-146.9
X106.5Y-148.9
X106.7Y-141.4
X106.7Y-143.4
X108.5Y-146.9
X108.5Y-148.9
X108.7Y-141.4
X108.7Y-143.4
X110.5Y-146.9
X110.5Y-148.9
X110.7Y-141.4
X110.7Y-143.4
X112.6Y-166.6
X112.6Y-168.6
X112.6Y-170.6
X112.6Y-172.6
X112.6Y-174.6
X112.6Y-176.6
X112.6Y-178.6
X112.6Y-180.6
X112.6Y-182.6
X112.6Y-184.6
X112.6Y-186.6
X114.6Y-166.6
X114.6Y-168.6
X114.6Y-170.6
X114.6Y-172.6
X114.6Y-174.6
X114.6Y-176.6
X114.6Y-178.6
X114.6Y-180.6
X114.6Y-182.6
X114.6Y-184.6
X114.6Y-186.6
T9
X64.895Y-100.6
X67.185Y-100.6
X68.195Y-94.0
X69.211Y-95.78
X70.227Y-94.0
X71.243Y-95.78
X72.259Y-94.0
X73.275Y-95.78
X74.291Y-94.0
X75.307Y-95.78
X76.325Y-100.6
X78.615Y-100.6
T10
X60.625Y-184.0
X63.165Y-184.0
X85.3Y-120.7
X85.3Y-123.24
X105.35Y-91.075
X109.85Y-91.075
X110.4Y-127.36
X110.4Y-129.9
X110.4Y-132.44
X111.0Y-118.66
X111.0Y-121.2
X111.0Y-123.74
T11
X104.1Y-93.575
X111.1Y-93.575
T12
X63.625Y-94.89
X79.885Y-94.89
T13
X24.4Y-162.3
X55.7Y-107.1
X114.0Y-136.9
X114.4Y-161.4
T7
G00X46.98Y-91.725
M15
G01X46.98Y-91.125
M16
G05
G00X46.98Y-96.155
M15
G01X46.98Y-95.055
M16
G05
G00X55.62Y-91.725
M15
G01X55.62Y-91.125
M16
G05
G00X55.62Y-96.155
M15
G01X55.62Y-95.055
M16
G05
T10
G00X21.2Y-101.7
M15
G01X21.2Y-103.7
M16
G05
G00X23.2Y-107.4
M15
G01X25.2Y-107.4
M16
G05
G00X27.2Y-101.7
M15
G01X27.2Y-103.7
M16
G05
M30
