%TF.GenerationSoftware,KiCad,Pcbnew,9.0.2*%
%TF.CreationDate,2026-01-08T17:40:22+03:00*%
%TF.ProjectId,zynq_test,7a796e71-5f74-4657-9374-2e6b69636164,1.2*%
%TF.SameCoordinates,Original*%
%TF.FileFunction,Paste,Top*%
%TF.FilePolarity,Positive*%
%FSLAX46Y46*%
G04 Gerber Fmt 4.6, Leading zero omitted, Abs format (unit mm)*
G04 Created by KiCad (PCBNEW 9.0.2) date 2026-01-08 17:40:22*
%MOMM*%
%LPD*%
G01*
G04 APERTURE LIST*
G04 Aperture macros list*
%AMRoundRect*
0 Rectangle with rounded corners*
0 $1 Rounding radius*
0 $2 $3 $4 $5 $6 $7 $8 $9 X,Y pos of 4 corners*
0 Add a 4 corners polygon primitive as box body*
4,1,4,$2,$3,$4,$5,$6,$7,$8,$9,$2,$3,0*
0 Add four circle primitives for the rounded corners*
1,1,$1+$1,$2,$3*
1,1,$1+$1,$4,$5*
1,1,$1+$1,$6,$7*
1,1,$1+$1,$8,$9*
0 Add four rect primitives between the rounded corners*
20,1,$1+$1,$2,$3,$4,$5,0*
20,1,$1+$1,$4,$5,$6,$7,0*
20,1,$1+$1,$6,$7,$8,$9,0*
20,1,$1+$1,$8,$9,$2,$3,0*%
%AMRotRect*
0 Rectangle, with rotation*
0 The origin of the aperture is its center*
0 $1 length*
0 $2 width*
0 $3 Rotation angle, in degrees counterclockwise*
0 Add horizontal line*
21,1,$1,$2,0,0,$3*%
G04 Aperture macros list end*
%ADD10C,0.010000*%
%ADD11RoundRect,0.225000X0.250000X-0.225000X0.250000X0.225000X-0.250000X0.225000X-0.250000X-0.225000X0*%
%ADD12RoundRect,0.250000X-0.650000X0.412500X-0.650000X-0.412500X0.650000X-0.412500X0.650000X0.412500X0*%
%ADD13RoundRect,0.225000X-0.250000X0.225000X-0.250000X-0.225000X0.250000X-0.225000X0.250000X0.225000X0*%
%ADD14RoundRect,0.155000X-0.155000X0.212500X-0.155000X-0.212500X0.155000X-0.212500X0.155000X0.212500X0*%
%ADD15RoundRect,0.250001X0.462499X0.624999X-0.462499X0.624999X-0.462499X-0.624999X0.462499X-0.624999X0*%
%ADD16RoundRect,0.162500X-0.650000X-0.162500X0.650000X-0.162500X0.650000X0.162500X-0.650000X0.162500X0*%
%ADD17RoundRect,0.225000X-0.225000X-0.250000X0.225000X-0.250000X0.225000X0.250000X-0.225000X0.250000X0*%
%ADD18RoundRect,0.250001X-0.624999X0.462499X-0.624999X-0.462499X0.624999X-0.462499X0.624999X0.462499X0*%
%ADD19RoundRect,0.160000X0.160000X-0.197500X0.160000X0.197500X-0.160000X0.197500X-0.160000X-0.197500X0*%
%ADD20RoundRect,0.160000X-0.197500X-0.160000X0.197500X-0.160000X0.197500X0.160000X-0.197500X0.160000X0*%
%ADD21RoundRect,0.200000X-1.150000X0.200000X-1.150000X-0.200000X1.150000X-0.200000X1.150000X0.200000X0*%
%ADD22RoundRect,0.160000X0.197500X0.160000X-0.197500X0.160000X-0.197500X-0.160000X0.197500X-0.160000X0*%
%ADD23RoundRect,0.250000X0.337500X0.475000X-0.337500X0.475000X-0.337500X-0.475000X0.337500X-0.475000X0*%
%ADD24RoundRect,0.160000X-0.160000X0.197500X-0.160000X-0.197500X0.160000X-0.197500X0.160000X0.197500X0*%
%ADD25RoundRect,0.237500X-0.237500X0.287500X-0.237500X-0.287500X0.237500X-0.287500X0.237500X0.287500X0*%
%ADD26RoundRect,0.250000X0.412500X0.650000X-0.412500X0.650000X-0.412500X-0.650000X0.412500X-0.650000X0*%
%ADD27RoundRect,0.237500X0.287500X0.237500X-0.287500X0.237500X-0.287500X-0.237500X0.287500X-0.237500X0*%
%ADD28R,0.900000X1.000000*%
%ADD29R,0.800000X1.000000*%
%ADD30R,1.500000X0.700000*%
%ADD31RoundRect,0.032500X0.097500X-0.397500X0.097500X0.397500X-0.097500X0.397500X-0.097500X-0.397500X0*%
%ADD32RoundRect,0.032500X0.397500X-0.097500X0.397500X0.097500X-0.397500X0.097500X-0.397500X-0.097500X0*%
%ADD33RoundRect,0.237500X0.237500X-0.287500X0.237500X0.287500X-0.237500X0.287500X-0.237500X-0.287500X0*%
%ADD34RoundRect,0.250000X-0.650000X1.000000X-0.650000X-1.000000X0.650000X-1.000000X0.650000X1.000000X0*%
%ADD35C,0.419100*%
%ADD36RoundRect,0.032500X-0.097500X0.397500X-0.097500X-0.397500X0.097500X-0.397500X0.097500X0.397500X0*%
%ADD37RoundRect,0.032500X-0.397500X0.097500X-0.397500X-0.097500X0.397500X-0.097500X0.397500X0.097500X0*%
%ADD38RoundRect,0.155000X-0.212500X-0.155000X0.212500X-0.155000X0.212500X0.155000X-0.212500X0.155000X0*%
%ADD39RoundRect,0.150000X0.150000X-0.825000X0.150000X0.825000X-0.150000X0.825000X-0.150000X-0.825000X0*%
%ADD40RoundRect,0.250000X-0.450000X0.325000X-0.450000X-0.325000X0.450000X-0.325000X0.450000X0.325000X0*%
%ADD41RoundRect,0.249999X-3.500001X0.850001X-3.500001X-0.850001X3.500001X-0.850001X3.500001X0.850001X0*%
%ADD42RoundRect,0.225000X0.225000X0.250000X-0.225000X0.250000X-0.225000X-0.250000X0.225000X-0.250000X0*%
%ADD43RoundRect,0.250000X-0.337500X-0.475000X0.337500X-0.475000X0.337500X0.475000X-0.337500X0.475000X0*%
%ADD44RoundRect,0.200000X-0.200000X-1.150000X0.200000X-1.150000X0.200000X1.150000X-0.200000X1.150000X0*%
%ADD45C,0.410000*%
%ADD46R,0.625000X0.250000*%
%ADD47R,0.700000X0.450000*%
%ADD48R,0.575000X0.450000*%
%ADD49RoundRect,0.250000X-0.375000X-0.625000X0.375000X-0.625000X0.375000X0.625000X-0.375000X0.625000X0*%
%ADD50RoundRect,0.250000X-0.475000X0.337500X-0.475000X-0.337500X0.475000X-0.337500X0.475000X0.337500X0*%
%ADD51RoundRect,0.050000X0.660000X0.150000X-0.660000X0.150000X-0.660000X-0.150000X0.660000X-0.150000X0*%
%ADD52RoundRect,0.250000X0.325000X0.450000X-0.325000X0.450000X-0.325000X-0.450000X0.325000X-0.450000X0*%
%ADD53R,0.640000X0.640000*%
%ADD54RoundRect,0.070000X0.070000X-0.355000X0.070000X0.355000X-0.070000X0.355000X-0.070000X-0.355000X0*%
%ADD55R,0.700000X0.280000*%
%ADD56RoundRect,0.250000X0.450000X-0.325000X0.450000X0.325000X-0.450000X0.325000X-0.450000X-0.325000X0*%
%ADD57RoundRect,0.250000X0.650000X-0.412500X0.650000X0.412500X-0.650000X0.412500X-0.650000X-0.412500X0*%
%ADD58R,0.250000X0.625000*%
%ADD59R,0.450000X0.700000*%
%ADD60R,0.450000X0.575000*%
%ADD61RoundRect,0.155000X0.212500X0.155000X-0.212500X0.155000X-0.212500X-0.155000X0.212500X-0.155000X0*%
%ADD62R,0.700000X1.700000*%
%ADD63RoundRect,0.300000X0.300000X0.400000X-0.300000X0.400000X-0.300000X-0.400000X0.300000X-0.400000X0*%
%ADD64RoundRect,0.350000X0.450000X0.350000X-0.450000X0.350000X-0.450000X-0.350000X0.450000X-0.350000X0*%
%ADD65RoundRect,0.300000X0.300000X0.800000X-0.300000X0.800000X-0.300000X-0.800000X0.300000X-0.800000X0*%
%ADD66RoundRect,0.050000X0.150000X-0.660000X0.150000X0.660000X-0.150000X0.660000X-0.150000X-0.660000X0*%
%ADD67RoundRect,0.200000X0.200000X1.150000X-0.200000X1.150000X-0.200000X-1.150000X0.200000X-1.150000X0*%
%ADD68RoundRect,0.250000X0.650000X-1.000000X0.650000X1.000000X-0.650000X1.000000X-0.650000X-1.000000X0*%
%ADD69RoundRect,0.250000X0.625000X-0.375000X0.625000X0.375000X-0.625000X0.375000X-0.625000X-0.375000X0*%
%ADD70RoundRect,0.250000X-0.280000X-0.280000X0.280000X-0.280000X0.280000X0.280000X-0.280000X0.280000X0*%
%ADD71RoundRect,0.075000X-0.362500X-0.075000X0.362500X-0.075000X0.362500X0.075000X-0.362500X0.075000X0*%
%ADD72RoundRect,0.075000X-0.075000X-0.362500X0.075000X-0.362500X0.075000X0.362500X-0.075000X0.362500X0*%
%ADD73RoundRect,0.250001X0.624999X-0.462499X0.624999X0.462499X-0.624999X0.462499X-0.624999X-0.462499X0*%
%ADD74R,0.550000X0.220000*%
%ADD75R,0.220000X0.550000*%
%ADD76RotRect,0.479000X0.479000X225.000000*%
%ADD77R,1.000000X0.661000*%
%ADD78R,1.000000X1.000000*%
%ADD79R,0.661000X0.339000*%
%ADD80RoundRect,0.155000X0.155000X-0.212500X0.155000X0.212500X-0.155000X0.212500X-0.155000X-0.212500X0*%
%ADD81RoundRect,0.150000X0.150000X0.500000X-0.150000X0.500000X-0.150000X-0.500000X0.150000X-0.500000X0*%
%ADD82RoundRect,0.075000X0.075000X0.575000X-0.075000X0.575000X-0.075000X-0.575000X0.075000X-0.575000X0*%
%ADD83RoundRect,0.032500X-0.397500X-0.097500X0.397500X-0.097500X0.397500X0.097500X-0.397500X0.097500X0*%
%ADD84RoundRect,0.032500X-0.097500X-0.397500X0.097500X-0.397500X0.097500X0.397500X-0.097500X0.397500X0*%
%ADD85RoundRect,0.237500X-0.287500X-0.237500X0.287500X-0.237500X0.287500X0.237500X-0.287500X0.237500X0*%
%ADD86RoundRect,0.190000X0.190000X-0.765000X0.190000X0.765000X-0.190000X0.765000X-0.190000X-0.765000X0*%
%ADD87RoundRect,0.032500X0.397500X0.097500X-0.397500X0.097500X-0.397500X-0.097500X0.397500X-0.097500X0*%
%ADD88RoundRect,0.032500X0.097500X0.397500X-0.097500X0.397500X-0.097500X-0.397500X0.097500X-0.397500X0*%
%ADD89RoundRect,0.250000X1.400000X0.600000X-1.400000X0.600000X-1.400000X-0.600000X1.400000X-0.600000X0*%
%ADD90RoundRect,0.250000X-0.255000X-0.255000X0.255000X-0.255000X0.255000X0.255000X-0.255000X0.255000X0*%
%ADD91RoundRect,0.062500X-0.337500X-0.062500X0.337500X-0.062500X0.337500X0.062500X-0.337500X0.062500X0*%
%ADD92RoundRect,0.062500X-0.062500X-0.337500X0.062500X-0.337500X0.062500X0.337500X-0.062500X0.337500X0*%
%ADD93RoundRect,0.250000X0.450000X0.350000X-0.450000X0.350000X-0.450000X-0.350000X0.450000X-0.350000X0*%
%ADD94C,0.304800*%
%ADD95RoundRect,0.250000X0.475000X-0.337500X0.475000X0.337500X-0.475000X0.337500X-0.475000X-0.337500X0*%
G04 APERTURE END LIST*
D10*
%TO.C,U4*%
X45065000Y-109280000D02*
X44005000Y-109280000D01*
X44005000Y-108220000D01*
X45065000Y-108220000D01*
X45065000Y-109280000D01*
G36*
X45065000Y-109280000D02*
G01*
X44005000Y-109280000D01*
X44005000Y-108220000D01*
X45065000Y-108220000D01*
X45065000Y-109280000D01*
G37*
%TO.C,U2*%
X30327500Y-131780000D02*
X29267500Y-131780000D01*
X29267500Y-130720000D01*
X30327500Y-130720000D01*
X30327500Y-131780000D01*
G36*
X30327500Y-131780000D02*
G01*
X29267500Y-131780000D01*
X29267500Y-130720000D01*
X30327500Y-130720000D01*
X30327500Y-131780000D01*
G37*
%TO.C,U5*%
X42965000Y-186580000D02*
X41905000Y-186580000D01*
X41905000Y-185520000D01*
X42965000Y-185520000D01*
X42965000Y-186580000D01*
G36*
X42965000Y-186580000D02*
G01*
X41905000Y-186580000D01*
X41905000Y-185520000D01*
X42965000Y-185520000D01*
X42965000Y-186580000D01*
G37*
%TO.C,U3*%
X31150000Y-116710000D02*
X30090000Y-116710000D01*
X30090000Y-115650000D01*
X31150000Y-115650000D01*
X31150000Y-116710000D01*
G36*
X31150000Y-116710000D02*
G01*
X30090000Y-116710000D01*
X30090000Y-115650000D01*
X31150000Y-115650000D01*
X31150000Y-116710000D01*
G37*
%TO.C,U1*%
X25895000Y-172580000D02*
X24835000Y-172580000D01*
X24835000Y-171520000D01*
X25895000Y-171520000D01*
X25895000Y-172580000D01*
G36*
X25895000Y-172580000D02*
G01*
X24835000Y-172580000D01*
X24835000Y-171520000D01*
X25895000Y-171520000D01*
X25895000Y-172580000D01*
G37*
%TD*%
D11*
%TO.C,C215*%
X38300000Y-93555000D03*
X38300000Y-92005000D03*
%TD*%
%TO.C,C99*%
X23900000Y-149175000D03*
X23900000Y-147625000D03*
%TD*%
D12*
%TO.C,C113*%
X25800000Y-138237500D03*
X25800000Y-141362500D03*
%TD*%
D13*
%TO.C,C110*%
X63000000Y-147725000D03*
X63000000Y-149275000D03*
%TD*%
D14*
%TO.C,C161*%
X81575000Y-127757500D03*
X81575000Y-128892500D03*
%TD*%
D15*
%TO.C,FB10*%
X35587500Y-173600000D03*
X32612500Y-173600000D03*
%TD*%
D16*
%TO.C,U12*%
X97900000Y-118930000D03*
X97900000Y-120200000D03*
X97900000Y-121470000D03*
X97900000Y-122740000D03*
X105075000Y-122740000D03*
X105075000Y-121470000D03*
X105075000Y-120200000D03*
X105075000Y-118930000D03*
%TD*%
D17*
%TO.C,C10*%
X46400000Y-186150000D03*
X47950000Y-186150000D03*
%TD*%
D18*
%TO.C,FB2*%
X23100000Y-179812500D03*
X23100000Y-182787500D03*
%TD*%
D17*
%TO.C,C216*%
X43600000Y-95700000D03*
X45150000Y-95700000D03*
%TD*%
D19*
%TO.C,R49*%
X64300000Y-150397500D03*
X64300000Y-149202500D03*
%TD*%
D20*
%TO.C,R137*%
X58302500Y-125600000D03*
X59497500Y-125600000D03*
%TD*%
D17*
%TO.C,C164*%
X76825000Y-135300000D03*
X78375000Y-135300000D03*
%TD*%
%TO.C,C89*%
X64925000Y-152500000D03*
X66475000Y-152500000D03*
%TD*%
D21*
%TO.C,L1*%
X29730000Y-171450000D03*
X29730000Y-173750000D03*
%TD*%
D13*
%TO.C,C146*%
X37100000Y-176250000D03*
X37100000Y-177800000D03*
%TD*%
D19*
%TO.C,R163*%
X47100000Y-131797500D03*
X47100000Y-130602500D03*
%TD*%
D13*
%TO.C,C149*%
X35600000Y-176225000D03*
X35600000Y-177775000D03*
%TD*%
D22*
%TO.C,R93*%
X108672500Y-162170000D03*
X107477500Y-162170000D03*
%TD*%
D23*
%TO.C,C24*%
X27570000Y-124800000D03*
X25495000Y-124800000D03*
%TD*%
D22*
%TO.C,R79*%
X105097500Y-124400000D03*
X103902500Y-124400000D03*
%TD*%
D19*
%TO.C,R77*%
X39000001Y-153597500D03*
X39000001Y-152402500D03*
%TD*%
D20*
%TO.C,R98*%
X65777500Y-127925000D03*
X66972500Y-127925000D03*
%TD*%
%TO.C,R126*%
X59017500Y-94000000D03*
X60212500Y-94000000D03*
%TD*%
D24*
%TO.C,R36*%
X40800000Y-125702500D03*
X40800000Y-126897500D03*
%TD*%
D11*
%TO.C,C126*%
X38600000Y-171650000D03*
X38600000Y-170100000D03*
%TD*%
D20*
%TO.C,R142*%
X48302500Y-136000000D03*
X49497500Y-136000000D03*
%TD*%
%TO.C,R120*%
X93902500Y-184900000D03*
X95097500Y-184900000D03*
%TD*%
D25*
%TO.C,D5*%
X38100000Y-114225000D03*
X38100000Y-115975000D03*
%TD*%
D26*
%TO.C,C91*%
X65462500Y-141975000D03*
X62337500Y-141975000D03*
%TD*%
D11*
%TO.C,C129*%
X38600000Y-174900000D03*
X38600000Y-173350000D03*
%TD*%
D20*
%TO.C,R29*%
X47085000Y-118385000D03*
X48280000Y-118385000D03*
%TD*%
D24*
%TO.C,R40*%
X41800000Y-125702500D03*
X41800000Y-126897500D03*
%TD*%
D27*
%TO.C,D11*%
X110450000Y-160880000D03*
X108700000Y-160880000D03*
%TD*%
D24*
%TO.C,R139*%
X92575000Y-114127500D03*
X92575000Y-115322500D03*
%TD*%
D22*
%TO.C,R1*%
X45097500Y-183000000D03*
X43902500Y-183000000D03*
%TD*%
D19*
%TO.C,R15*%
X69800000Y-175195000D03*
X69800000Y-174000000D03*
%TD*%
D20*
%TO.C,R31*%
X25202500Y-150500000D03*
X26397500Y-150500000D03*
%TD*%
D11*
%TO.C,C125*%
X40400000Y-146875000D03*
X40400000Y-145325000D03*
%TD*%
D28*
%TO.C,Y1*%
X65000000Y-144000000D03*
X65000000Y-146150000D03*
X66550000Y-146150000D03*
X66550000Y-144000000D03*
%TD*%
D22*
%TO.C,R74*%
X35297500Y-148700000D03*
X34102500Y-148700000D03*
%TD*%
%TO.C,R48*%
X65597500Y-148100000D03*
X64402500Y-148100000D03*
%TD*%
D19*
%TO.C,R33*%
X28400000Y-144697500D03*
X28400000Y-143502500D03*
%TD*%
D29*
%TO.C,SW3*%
X114645000Y-100250000D03*
X116855000Y-100250000D03*
X114645000Y-92950000D03*
X116855000Y-92950000D03*
D30*
X113995000Y-98850000D03*
X113995000Y-95850000D03*
X113995000Y-94350000D03*
%TD*%
D22*
%TO.C,R92*%
X108672500Y-159570000D03*
X107477500Y-159570000D03*
%TD*%
%TO.C,R101*%
X77897500Y-134100000D03*
X76702500Y-134100000D03*
%TD*%
D13*
%TO.C,C88*%
X25700000Y-143025000D03*
X25700000Y-144575000D03*
%TD*%
D24*
%TO.C,R17*%
X27100000Y-167005000D03*
X27100000Y-168200000D03*
%TD*%
D20*
%TO.C,R16*%
X27100000Y-169300000D03*
X28295000Y-169300000D03*
%TD*%
D24*
%TO.C,R32*%
X25200000Y-147502500D03*
X25200000Y-148697500D03*
%TD*%
D31*
%TO.C,U4*%
X43785000Y-110185000D03*
X44285000Y-110185000D03*
X44785000Y-110185000D03*
X45285000Y-110185000D03*
D32*
X45970000Y-109500000D03*
X45970000Y-109000000D03*
X45970000Y-108500000D03*
X45970000Y-108000000D03*
D31*
X45285000Y-107315000D03*
X44785000Y-107315000D03*
X44285000Y-107315000D03*
X43785000Y-107315000D03*
D32*
X43100000Y-108000000D03*
X43100000Y-108500000D03*
X43100000Y-109000000D03*
X43100000Y-109500000D03*
%TD*%
D33*
%TO.C,D7*%
X65300000Y-181277500D03*
X65300000Y-179527500D03*
%TD*%
D19*
%TO.C,R44*%
X66000000Y-175397500D03*
X66000000Y-174202500D03*
%TD*%
D34*
%TO.C,D2*%
X31300000Y-96900000D03*
X31300000Y-100900000D03*
%TD*%
D35*
%TO.C,U10*%
X60900001Y-154400001D03*
X61700001Y-154400001D03*
X62500001Y-154400001D03*
X63300001Y-154400001D03*
X64100001Y-154400001D03*
X64900001Y-154400001D03*
X65700000Y-154400001D03*
X66500000Y-154400001D03*
X67300000Y-154400001D03*
X68100000Y-154400001D03*
X68900000Y-154400001D03*
X69700000Y-154400001D03*
X70500000Y-154400001D03*
X71300000Y-154400001D03*
X72100000Y-154400001D03*
X72900000Y-154400001D03*
X73700000Y-154400001D03*
X74499999Y-154400001D03*
X75299999Y-154400001D03*
X76099999Y-154400001D03*
X60900001Y-155200001D03*
X61700001Y-155200001D03*
X62500001Y-155200001D03*
X63300001Y-155200001D03*
X64100001Y-155200001D03*
X64900001Y-155200001D03*
X65700000Y-155200001D03*
X66500000Y-155200001D03*
X67300000Y-155200001D03*
X68100000Y-155200001D03*
X68900000Y-155200001D03*
X69700000Y-155200001D03*
X70500000Y-155200001D03*
X71300000Y-155200001D03*
X72100000Y-155200001D03*
X72900000Y-155200001D03*
X73700000Y-155200001D03*
X74499999Y-155200001D03*
X75299999Y-155200001D03*
X76099999Y-155200001D03*
X60900001Y-156000001D03*
X61700001Y-156000001D03*
X62500001Y-156000001D03*
X63300001Y-156000001D03*
X64100001Y-156000001D03*
X64900001Y-156000001D03*
X65700000Y-156000001D03*
X66500000Y-156000001D03*
X67300000Y-156000001D03*
X68100000Y-156000001D03*
X68900000Y-156000001D03*
X69700000Y-156000001D03*
X70500000Y-156000001D03*
X71300000Y-156000001D03*
X72100000Y-156000001D03*
X72900000Y-156000001D03*
X73700000Y-156000001D03*
X74499999Y-156000001D03*
X75299999Y-156000001D03*
X76099999Y-156000001D03*
X60900001Y-156800001D03*
X61700001Y-156800001D03*
X62500001Y-156800001D03*
X63300001Y-156800001D03*
X64100001Y-156800001D03*
X64900001Y-156800001D03*
X65700000Y-156800001D03*
X66500000Y-156800001D03*
X67300000Y-156800001D03*
X68100000Y-156800001D03*
X68900000Y-156800001D03*
X69700000Y-156800001D03*
X70500000Y-156800001D03*
X71300000Y-156800001D03*
X72100000Y-156800001D03*
X72900000Y-156800001D03*
X73700000Y-156800001D03*
X74499999Y-156800001D03*
X75299999Y-156800001D03*
X76099999Y-156800001D03*
X60900001Y-157600001D03*
X61700001Y-157600001D03*
X62500001Y-157600001D03*
X63300001Y-157600001D03*
X64100001Y-157600001D03*
X64900001Y-157600001D03*
X65700000Y-157600001D03*
X66500000Y-157600001D03*
X67300000Y-157600001D03*
X68100000Y-157600001D03*
X68900000Y-157600001D03*
X69700000Y-157600001D03*
X70500000Y-157600001D03*
X71300000Y-157600001D03*
X72100000Y-157600001D03*
X72900000Y-157600001D03*
X73700000Y-157600001D03*
X74499999Y-157600001D03*
X75299999Y-157600001D03*
X76099999Y-157600001D03*
X60900001Y-158400001D03*
X61700001Y-158400001D03*
X62500001Y-158400001D03*
X63300001Y-158400001D03*
X64100001Y-158400001D03*
X64900001Y-158400001D03*
X65700000Y-158400001D03*
X66500000Y-158400001D03*
X67300000Y-158400001D03*
X68100000Y-158400001D03*
X68900000Y-158400001D03*
X69700000Y-158400001D03*
X70500000Y-158400001D03*
X71300000Y-158400001D03*
X72100000Y-158400001D03*
X72900000Y-158400001D03*
X73700000Y-158400001D03*
X74499999Y-158400001D03*
X75299999Y-158400001D03*
X76099999Y-158400001D03*
X60900001Y-159200000D03*
X61700001Y-159200000D03*
X62500001Y-159200000D03*
X63300001Y-159200000D03*
X64100001Y-159200000D03*
X64900001Y-159200000D03*
X65700000Y-159200000D03*
X66500000Y-159200000D03*
X67300000Y-159200000D03*
X68100000Y-159200000D03*
X68900000Y-159200000D03*
X69700000Y-159200000D03*
X70500000Y-159200000D03*
X71300000Y-159200000D03*
X72100000Y-159200000D03*
X72900000Y-159200000D03*
X73700000Y-159200000D03*
X74499999Y-159200000D03*
X75299999Y-159200000D03*
X76099999Y-159200000D03*
X60900001Y-160000000D03*
X61700001Y-160000000D03*
X62500001Y-160000000D03*
X63300001Y-160000000D03*
X64100001Y-160000000D03*
X64900001Y-160000000D03*
X65700000Y-160000000D03*
X66500000Y-160000000D03*
X67300000Y-160000000D03*
X68100000Y-160000000D03*
X68900000Y-160000000D03*
X69700000Y-160000000D03*
X70500000Y-160000000D03*
X71300000Y-160000000D03*
X72100000Y-160000000D03*
X72900000Y-160000000D03*
X73700000Y-160000000D03*
X74499999Y-160000000D03*
X75299999Y-160000000D03*
X76099999Y-160000000D03*
X60900001Y-160800000D03*
X61700001Y-160800000D03*
X62500001Y-160800000D03*
X63300001Y-160800000D03*
X64100001Y-160800000D03*
X64900001Y-160800000D03*
X65700000Y-160800000D03*
X66500000Y-160800000D03*
X67300000Y-160800000D03*
X68100000Y-160800000D03*
X68900000Y-160800000D03*
X69700000Y-160800000D03*
X70500000Y-160800000D03*
X71300000Y-160800000D03*
X72100000Y-160800000D03*
X72900000Y-160800000D03*
X73700000Y-160800000D03*
X74499999Y-160800000D03*
X75299999Y-160800000D03*
X76099999Y-160800000D03*
X60900001Y-161600000D03*
X61700001Y-161600000D03*
X62500001Y-161600000D03*
X63300001Y-161600000D03*
X64100001Y-161600000D03*
X64900001Y-161600000D03*
X65700000Y-161600000D03*
X66500000Y-161600000D03*
X67300000Y-161600000D03*
X68100000Y-161600000D03*
X68900000Y-161600000D03*
X69700000Y-161600000D03*
X70500000Y-161600000D03*
X71300000Y-161600000D03*
X72100000Y-161600000D03*
X72900000Y-161600000D03*
X73700000Y-161600000D03*
X74499999Y-161600000D03*
X75299999Y-161600000D03*
X76099999Y-161600000D03*
X60900001Y-162400000D03*
X61700001Y-162400000D03*
X62500001Y-162400000D03*
X63300001Y-162400000D03*
X64100001Y-162400000D03*
X64900001Y-162400000D03*
X65700000Y-162400000D03*
X66500000Y-162400000D03*
X67300000Y-162400000D03*
X68100000Y-162400000D03*
X68900000Y-162400000D03*
X69700000Y-162400000D03*
X70500000Y-162400000D03*
X71300000Y-162400000D03*
X72100000Y-162400000D03*
X72900000Y-162400000D03*
X73700000Y-162400000D03*
X74499999Y-162400000D03*
X75299999Y-162400000D03*
X76099999Y-162400000D03*
X60900001Y-163200000D03*
X61700001Y-163200000D03*
X62500001Y-163200000D03*
X63300001Y-163200000D03*
X64100001Y-163200000D03*
X64900001Y-163200000D03*
X65700000Y-163200000D03*
X66500000Y-163200000D03*
X67300000Y-163200000D03*
X68100000Y-163200000D03*
X68900000Y-163200000D03*
X69700000Y-163200000D03*
X70500000Y-163200000D03*
X71300000Y-163200000D03*
X72100000Y-163200000D03*
X72900000Y-163200000D03*
X73700000Y-163200000D03*
X74499999Y-163200000D03*
X75299999Y-163200000D03*
X76099999Y-163200000D03*
X60900001Y-164000000D03*
X61700001Y-164000000D03*
X62500001Y-164000000D03*
X63300001Y-164000000D03*
X64100001Y-164000000D03*
X64900001Y-164000000D03*
X65700000Y-164000000D03*
X66500000Y-164000000D03*
X67300000Y-164000000D03*
X68100000Y-164000000D03*
X68900000Y-164000000D03*
X69700000Y-164000000D03*
X70500000Y-164000000D03*
X71300000Y-164000000D03*
X72100000Y-164000000D03*
X72900000Y-164000000D03*
X73700000Y-164000000D03*
X74499999Y-164000000D03*
X75299999Y-164000000D03*
X76099999Y-164000000D03*
X60900001Y-164800000D03*
X61700001Y-164800000D03*
X62500001Y-164800000D03*
X63300001Y-164800000D03*
X64100001Y-164800000D03*
X64900001Y-164800000D03*
X65700000Y-164800000D03*
X66500000Y-164800000D03*
X67300000Y-164800000D03*
X68100000Y-164800000D03*
X68900000Y-164800000D03*
X69700000Y-164800000D03*
X70500000Y-164800000D03*
X71300000Y-164800000D03*
X72100000Y-164800000D03*
X72900000Y-164800000D03*
X73700000Y-164800000D03*
X74499999Y-164800000D03*
X75299999Y-164800000D03*
X76099999Y-164800000D03*
X60900001Y-165600000D03*
X61700001Y-165600000D03*
X62500001Y-165600000D03*
X63300001Y-165600000D03*
X64100001Y-165600000D03*
X64900001Y-165600000D03*
X65700000Y-165600000D03*
X66500000Y-165600000D03*
X67300000Y-165600000D03*
X68100000Y-165600000D03*
X68900000Y-165600000D03*
X69700000Y-165600000D03*
X70500000Y-165600000D03*
X71300000Y-165600000D03*
X72100000Y-165600000D03*
X72900000Y-165600000D03*
X73700000Y-165600000D03*
X74499999Y-165600000D03*
X75299999Y-165600000D03*
X76099999Y-165600000D03*
X60900001Y-166400000D03*
X61700001Y-166400000D03*
X62500001Y-166400000D03*
X63300001Y-166400000D03*
X64100001Y-166400000D03*
X64900001Y-166400000D03*
X65700000Y-166400000D03*
X66500000Y-166400000D03*
X67300000Y-166400000D03*
X68100000Y-166400000D03*
X68900000Y-166400000D03*
X69700000Y-166400000D03*
X70500000Y-166400000D03*
X71300000Y-166400000D03*
X72100000Y-166400000D03*
X72900000Y-166400000D03*
X73700000Y-166400000D03*
X74499999Y-166400000D03*
X75299999Y-166400000D03*
X76099999Y-166400000D03*
X60900001Y-167200000D03*
X61700001Y-167200000D03*
X62500001Y-167200000D03*
X63300001Y-167200000D03*
X64100001Y-167200000D03*
X64900001Y-167200000D03*
X65700000Y-167200000D03*
X66500000Y-167200000D03*
X67300000Y-167200000D03*
X68100000Y-167200000D03*
X68900000Y-167200000D03*
X69700000Y-167200000D03*
X70500000Y-167200000D03*
X71300000Y-167200000D03*
X72100000Y-167200000D03*
X72900000Y-167200000D03*
X73700000Y-167200000D03*
X74499999Y-167200000D03*
X75299999Y-167200000D03*
X76099999Y-167200000D03*
X60900001Y-167999999D03*
X61700001Y-167999999D03*
X62500001Y-167999999D03*
X63300001Y-167999999D03*
X64100001Y-167999999D03*
X64900001Y-167999999D03*
X65700000Y-167999999D03*
X66500000Y-167999999D03*
X67300000Y-167999999D03*
X68100000Y-167999999D03*
X68900000Y-167999999D03*
X69700000Y-167999999D03*
X70500000Y-167999999D03*
X71300000Y-167999999D03*
X72100000Y-167999999D03*
X72900000Y-167999999D03*
X73700000Y-167999999D03*
X74499999Y-167999999D03*
X75299999Y-167999999D03*
X76099999Y-167999999D03*
X60900001Y-168799999D03*
X61700001Y-168799999D03*
X62500001Y-168799999D03*
X63300001Y-168799999D03*
X64100001Y-168799999D03*
X64900001Y-168799999D03*
X65700000Y-168799999D03*
X66500000Y-168799999D03*
X67300000Y-168799999D03*
X68100000Y-168799999D03*
X68900000Y-168799999D03*
X69700000Y-168799999D03*
X70500000Y-168799999D03*
X71300000Y-168799999D03*
X72100000Y-168799999D03*
X72900000Y-168799999D03*
X73700000Y-168799999D03*
X74499999Y-168799999D03*
X75299999Y-168799999D03*
X76099999Y-168799999D03*
X60900001Y-169599999D03*
X61700001Y-169599999D03*
X62500001Y-169599999D03*
X63300001Y-169599999D03*
X64100001Y-169599999D03*
X64900001Y-169599999D03*
X65700000Y-169599999D03*
X66500000Y-169599999D03*
X67300000Y-169599999D03*
X68100000Y-169599999D03*
X68900000Y-169599999D03*
X69700000Y-169599999D03*
X70500000Y-169599999D03*
X71300000Y-169599999D03*
X72100000Y-169599999D03*
X72900000Y-169599999D03*
X73700000Y-169599999D03*
X74499999Y-169599999D03*
X75299999Y-169599999D03*
X76099999Y-169599999D03*
%TD*%
D27*
%TO.C,D19*%
X115975000Y-112800000D03*
X114225000Y-112800000D03*
%TD*%
D22*
%TO.C,R73*%
X35277500Y-150700000D03*
X34082500Y-150700000D03*
%TD*%
D36*
%TO.C,U2*%
X30547500Y-129815000D03*
X30047500Y-129815000D03*
X29547500Y-129815000D03*
X29047500Y-129815000D03*
D37*
X28362500Y-130500000D03*
X28362500Y-131000000D03*
X28362500Y-131500000D03*
X28362500Y-132000000D03*
D36*
X29047500Y-132685000D03*
X29547500Y-132685000D03*
X30047500Y-132685000D03*
X30547500Y-132685000D03*
D37*
X31232500Y-132000000D03*
X31232500Y-131500000D03*
X31232500Y-131000000D03*
X31232500Y-130500000D03*
%TD*%
D27*
%TO.C,D18*%
X115875000Y-114700000D03*
X114125000Y-114700000D03*
%TD*%
D38*
%TO.C,C11*%
X23732500Y-169400000D03*
X24867500Y-169400000D03*
%TD*%
D22*
%TO.C,R104*%
X61412500Y-100600000D03*
X60217500Y-100600000D03*
%TD*%
D20*
%TO.C,R2*%
X30802500Y-175400000D03*
X31997500Y-175400000D03*
%TD*%
D27*
%TO.C,D16*%
X63350000Y-123525000D03*
X61600000Y-123525000D03*
%TD*%
D39*
%TO.C,U19*%
X53995000Y-118975000D03*
X55265000Y-118975000D03*
X56535000Y-118975000D03*
X57805000Y-118975000D03*
X57805000Y-114025000D03*
X56535000Y-114025000D03*
X55265000Y-114025000D03*
X53995000Y-114025000D03*
%TD*%
D20*
%TO.C,R83*%
X111302500Y-112200000D03*
X112497500Y-112200000D03*
%TD*%
D40*
%TO.C,FB7*%
X69290000Y-179237500D03*
X69290000Y-181287500D03*
%TD*%
D22*
%TO.C,R55*%
X35297500Y-143600000D03*
X34102500Y-143600000D03*
%TD*%
D20*
%TO.C,R107*%
X64977500Y-123625000D03*
X66172500Y-123625000D03*
%TD*%
D41*
%TO.C,L5*%
X34900000Y-181300000D03*
X34900000Y-187300000D03*
%TD*%
D20*
%TO.C,R117*%
X94000000Y-181800000D03*
X95195000Y-181800000D03*
%TD*%
D22*
%TO.C,R76*%
X35297500Y-146700000D03*
X34102500Y-146700000D03*
%TD*%
D20*
%TO.C,R10*%
X48502500Y-187700000D03*
X49697500Y-187700000D03*
%TD*%
D19*
%TO.C,R100*%
X71175000Y-135922500D03*
X71175000Y-134727500D03*
%TD*%
D13*
%TO.C,C111*%
X29400000Y-139925000D03*
X29400000Y-141475000D03*
%TD*%
D17*
%TO.C,C90*%
X23425000Y-146100000D03*
X24975000Y-146100000D03*
%TD*%
D42*
%TO.C,C135*%
X42455001Y-182800000D03*
X40905001Y-182800000D03*
%TD*%
D20*
%TO.C,R81*%
X111502500Y-116400000D03*
X112697500Y-116400000D03*
%TD*%
D43*
%TO.C,C27*%
X54162500Y-184600000D03*
X56237500Y-184600000D03*
%TD*%
D24*
%TO.C,R14*%
X69200000Y-176702500D03*
X69200000Y-177897500D03*
%TD*%
D17*
%TO.C,C8*%
X30825000Y-122800000D03*
X32375000Y-122800000D03*
%TD*%
D13*
%TO.C,C131*%
X44500000Y-149025000D03*
X44500000Y-150575000D03*
%TD*%
D15*
%TO.C,FB5*%
X28387500Y-185200000D03*
X25412500Y-185200000D03*
%TD*%
D22*
%TO.C,R53*%
X35297500Y-145700000D03*
X34102500Y-145700000D03*
%TD*%
D19*
%TO.C,R52*%
X66400000Y-173097500D03*
X66400000Y-171902500D03*
%TD*%
D20*
%TO.C,R114*%
X94000000Y-178800000D03*
X95195000Y-178800000D03*
%TD*%
D22*
%TO.C,R60*%
X35297500Y-147700000D03*
X34102500Y-147700000D03*
%TD*%
%TO.C,R91*%
X108672500Y-156970000D03*
X107477500Y-156970000D03*
%TD*%
D24*
%TO.C,R13*%
X70200000Y-176702500D03*
X70200000Y-177897500D03*
%TD*%
D19*
%TO.C,R86*%
X100000000Y-117397500D03*
X100000000Y-116202500D03*
%TD*%
%TO.C,R153*%
X101600000Y-114097500D03*
X101600000Y-112902500D03*
%TD*%
D42*
%TO.C,C148*%
X43400000Y-139900000D03*
X41850000Y-139900000D03*
%TD*%
D44*
%TO.C,L2*%
X30132500Y-126600000D03*
X32432500Y-126600000D03*
%TD*%
D22*
%TO.C,R4*%
X27027500Y-129500000D03*
X25832500Y-129500000D03*
%TD*%
D45*
%TO.C,U9*%
X47600001Y-179900000D03*
X46800001Y-179900000D03*
X46000001Y-179900000D03*
X42800001Y-179900000D03*
X42000001Y-179900000D03*
X41200001Y-179900000D03*
X47600001Y-179100000D03*
X46800001Y-179100000D03*
X46000001Y-179100000D03*
X42800001Y-179100000D03*
X42000001Y-179100000D03*
X41200001Y-179100000D03*
X47600001Y-178300000D03*
X46800001Y-178300000D03*
X46000001Y-178300000D03*
X42800001Y-178300000D03*
X42000001Y-178300000D03*
X41200001Y-178300000D03*
X47600001Y-177500000D03*
X46800001Y-177500000D03*
X46000001Y-177500000D03*
X42800001Y-177500000D03*
X42000001Y-177500000D03*
X41200001Y-177500000D03*
X47600001Y-176700000D03*
X46800001Y-176700000D03*
X46000001Y-176700000D03*
X42800001Y-176700000D03*
X42000001Y-176700000D03*
X41200001Y-176700000D03*
X47600001Y-175900000D03*
X46800001Y-175900000D03*
X46000001Y-175900000D03*
X42800001Y-175900000D03*
X42000001Y-175900000D03*
X41200001Y-175900000D03*
X47600001Y-175100000D03*
X46800001Y-175100000D03*
X46000001Y-175100000D03*
X42800001Y-175100000D03*
X42000001Y-175100000D03*
X41200001Y-175100000D03*
X47600001Y-174300000D03*
X46800001Y-174300000D03*
X46000001Y-174300000D03*
X42800001Y-174300000D03*
X42000001Y-174300000D03*
X41200001Y-174300000D03*
X47600001Y-173500000D03*
X46800001Y-173500000D03*
X46000001Y-173500000D03*
X42800001Y-173500000D03*
X42000001Y-173500000D03*
X41200001Y-173500000D03*
X47600001Y-172700000D03*
X46800001Y-172700000D03*
X46000001Y-172700000D03*
X42800001Y-172700000D03*
X42000001Y-172700000D03*
X41200001Y-172700000D03*
X47600001Y-171900000D03*
X46800001Y-171900000D03*
X46000001Y-171900000D03*
X42800001Y-171900000D03*
X42000001Y-171900000D03*
X41200001Y-171900000D03*
X47600001Y-171100000D03*
X46800001Y-171100000D03*
X46000001Y-171100000D03*
X42800001Y-171100000D03*
X42000001Y-171100000D03*
X41200001Y-171100000D03*
X47600001Y-170300000D03*
X46800001Y-170300000D03*
X46000001Y-170300000D03*
X42800001Y-170300000D03*
X42000001Y-170300000D03*
X41200001Y-170300000D03*
X47600001Y-169500000D03*
X46800001Y-169500000D03*
X46000001Y-169500000D03*
X42800001Y-169500000D03*
X42000001Y-169500000D03*
X41200001Y-169500000D03*
X47600001Y-168700000D03*
X46800001Y-168700000D03*
X46000001Y-168700000D03*
X42800001Y-168700000D03*
X42000001Y-168700000D03*
X41200001Y-168700000D03*
X47600001Y-167900000D03*
X46800001Y-167900000D03*
X46000001Y-167900000D03*
X42800001Y-167900000D03*
X42000001Y-167900000D03*
X41200001Y-167900000D03*
%TD*%
D22*
%TO.C,R69*%
X35297500Y-149700000D03*
X34102500Y-149700000D03*
%TD*%
D44*
%TO.C,L3*%
X30850000Y-112100000D03*
X33150000Y-112100000D03*
%TD*%
D17*
%TO.C,C9*%
X44440000Y-104870000D03*
X45990000Y-104870000D03*
%TD*%
D42*
%TO.C,C97*%
X32764999Y-142500000D03*
X31214999Y-142500000D03*
%TD*%
D13*
%TO.C,C195*%
X89175000Y-112600000D03*
X89175000Y-114150000D03*
%TD*%
%TO.C,C109*%
X25400000Y-151825000D03*
X25400000Y-153375000D03*
%TD*%
D11*
%TO.C,C204*%
X51100000Y-124675000D03*
X51100000Y-123125000D03*
%TD*%
D20*
%TO.C,R11*%
X46202500Y-187700000D03*
X47397500Y-187700000D03*
%TD*%
D38*
%TO.C,C14*%
X45367500Y-106115000D03*
X46502500Y-106115000D03*
%TD*%
D46*
%TO.C,D13*%
X91300000Y-179300000D03*
X91300000Y-179800000D03*
D47*
X91337500Y-180300000D03*
D46*
X91300000Y-180800000D03*
X91300000Y-181300000D03*
X92075000Y-181300000D03*
X92075000Y-180800000D03*
D48*
X92100000Y-180300000D03*
D46*
X92075000Y-179800000D03*
X92075000Y-179300000D03*
%TD*%
D22*
%TO.C,R59*%
X35297500Y-142600000D03*
X34102500Y-142600000D03*
%TD*%
D42*
%TO.C,C103*%
X32764999Y-148700000D03*
X31214999Y-148700000D03*
%TD*%
D46*
%TO.C,D15*%
X88900000Y-187900000D03*
X88900000Y-187400000D03*
D47*
X88862500Y-186900000D03*
D46*
X88900000Y-186400000D03*
X88900000Y-185900000D03*
X88125000Y-185900000D03*
X88125000Y-186400000D03*
D48*
X88100000Y-186900000D03*
D46*
X88125000Y-187400000D03*
X88125000Y-187900000D03*
%TD*%
D49*
%TO.C,F1*%
X20500000Y-96700000D03*
X23300000Y-96700000D03*
%TD*%
D27*
%TO.C,D20*%
X115975000Y-111100000D03*
X114225000Y-111100000D03*
%TD*%
D19*
%TO.C,R5*%
X27132500Y-131797500D03*
X27132500Y-130602500D03*
%TD*%
%TO.C,R46*%
X65300000Y-178100000D03*
X65300000Y-176905000D03*
%TD*%
D50*
%TO.C,C26*%
X40900000Y-108562500D03*
X40900000Y-110637500D03*
%TD*%
D20*
%TO.C,R140*%
X106202500Y-110100000D03*
X107397500Y-110100000D03*
%TD*%
D51*
%TO.C,U17*%
X106650000Y-113375000D03*
X106650000Y-112725000D03*
X106650000Y-112075000D03*
X106650000Y-111425000D03*
X103110000Y-111425000D03*
X103110000Y-112075000D03*
X103110000Y-112725000D03*
X103110000Y-113375000D03*
%TD*%
D46*
%TO.C,D14*%
X91300000Y-183200000D03*
X91300000Y-183700000D03*
D47*
X91337500Y-184200000D03*
D46*
X91300000Y-184700000D03*
X91300000Y-185200000D03*
X92075000Y-185200000D03*
X92075000Y-184700000D03*
D48*
X92100000Y-184200000D03*
D46*
X92075000Y-183700000D03*
X92075000Y-183200000D03*
%TD*%
D24*
%TO.C,R154*%
X48800000Y-128102500D03*
X48800000Y-129297500D03*
%TD*%
%TO.C,R84*%
X108700000Y-122402500D03*
X108700000Y-123597500D03*
%TD*%
D22*
%TO.C,R20*%
X29497500Y-112000000D03*
X28302500Y-112000000D03*
%TD*%
D52*
%TO.C,FB16*%
X67100000Y-126225000D03*
X65050000Y-126225000D03*
%TD*%
D53*
%TO.C,U6*%
X27100000Y-147987500D03*
X27900000Y-147987500D03*
X28700000Y-147987500D03*
X27100000Y-147162500D03*
X27900000Y-147162500D03*
X28700000Y-147162500D03*
D54*
X26900000Y-149050000D03*
X27400000Y-149050000D03*
X27900000Y-149050000D03*
X28400000Y-149050000D03*
X28900000Y-149050000D03*
X28900000Y-146100000D03*
X28400000Y-146100000D03*
X27900000Y-146100000D03*
X27400000Y-146100000D03*
X26900000Y-146100000D03*
D55*
X26350000Y-147825000D03*
X29450000Y-147825000D03*
X26350000Y-147325000D03*
X29450000Y-147325000D03*
%TD*%
D13*
%TO.C,C93*%
X40300000Y-134700000D03*
X40300000Y-136250000D03*
%TD*%
D14*
%TO.C,C15*%
X45100000Y-186532500D03*
X45100000Y-187667500D03*
%TD*%
D20*
%TO.C,R30*%
X49687500Y-113585000D03*
X50882500Y-113585000D03*
%TD*%
D29*
%TO.C,SW2*%
X114620000Y-109050000D03*
X116830000Y-109050000D03*
X114620000Y-101750000D03*
X116830000Y-101750000D03*
D30*
X113970000Y-107650000D03*
X113970000Y-104650000D03*
X113970000Y-103150000D03*
%TD*%
D42*
%TO.C,C160*%
X105275000Y-117140000D03*
X103725000Y-117140000D03*
%TD*%
D20*
%TO.C,R25*%
X49005000Y-183300000D03*
X50200000Y-183300000D03*
%TD*%
D19*
%TO.C,R37*%
X63774999Y-144962500D03*
X63774999Y-143767500D03*
%TD*%
D11*
%TO.C,C114*%
X29300000Y-153475000D03*
X29300000Y-151925000D03*
%TD*%
D20*
%TO.C,R119*%
X93900000Y-183800000D03*
X95095000Y-183800000D03*
%TD*%
D12*
%TO.C,C102*%
X27300000Y-152037500D03*
X27300000Y-155162500D03*
%TD*%
D20*
%TO.C,R121*%
X93902500Y-185900000D03*
X95097500Y-185900000D03*
%TD*%
D56*
%TO.C,FB17*%
X81675000Y-126350000D03*
X81675000Y-124300000D03*
%TD*%
D24*
%TO.C,R12*%
X68200000Y-176702500D03*
X68200000Y-177897500D03*
%TD*%
D20*
%TO.C,R27*%
X34002500Y-98300000D03*
X35197500Y-98300000D03*
%TD*%
D13*
%TO.C,C105*%
X23900000Y-152325000D03*
X23900000Y-153875000D03*
%TD*%
D43*
%TO.C,C22*%
X25062500Y-175600000D03*
X27137500Y-175600000D03*
%TD*%
D42*
%TO.C,C6*%
X22400000Y-175150000D03*
X20850000Y-175150000D03*
%TD*%
D57*
%TO.C,C86*%
X23400000Y-144162500D03*
X23400000Y-141037500D03*
%TD*%
D19*
%TO.C,R99*%
X77175000Y-128822500D03*
X77175000Y-127627500D03*
%TD*%
D17*
%TO.C,C4*%
X44440000Y-103380000D03*
X45990000Y-103380000D03*
%TD*%
D19*
%TO.C,R87*%
X109500000Y-136097500D03*
X109500000Y-134902500D03*
%TD*%
D20*
%TO.C,R95*%
X65777500Y-130925000D03*
X66972500Y-130925000D03*
%TD*%
D58*
%TO.C,D22*%
X47400000Y-128125000D03*
X46900000Y-128125000D03*
D59*
X46400000Y-128162500D03*
D58*
X45900000Y-128125000D03*
X45400000Y-128125000D03*
X45400000Y-128900000D03*
X45900000Y-128900000D03*
D60*
X46400000Y-128925000D03*
D58*
X46900000Y-128900000D03*
X47400000Y-128900000D03*
%TD*%
D26*
%TO.C,C140*%
X44262500Y-141900000D03*
X41137500Y-141900000D03*
%TD*%
D20*
%TO.C,R21*%
X28402500Y-113200000D03*
X29597500Y-113200000D03*
%TD*%
D17*
%TO.C,C23*%
X28025000Y-92300000D03*
X29575000Y-92300000D03*
%TD*%
D61*
%TO.C,C12*%
X27100000Y-132800000D03*
X25965000Y-132800000D03*
%TD*%
D20*
%TO.C,R148*%
X111302500Y-111000000D03*
X112497500Y-111000000D03*
%TD*%
%TO.C,R3*%
X28502500Y-175400000D03*
X29697500Y-175400000D03*
%TD*%
D22*
%TO.C,R67*%
X35297500Y-151700000D03*
X34102500Y-151700000D03*
%TD*%
D17*
%TO.C,C217*%
X43600000Y-94200000D03*
X45150000Y-94200000D03*
%TD*%
D11*
%TO.C,C122*%
X38600000Y-168675000D03*
X38600000Y-167125000D03*
%TD*%
D42*
%TO.C,C144*%
X43400000Y-138400000D03*
X41850000Y-138400000D03*
%TD*%
D62*
%TO.C,J12*%
X91000000Y-101150000D03*
X92100000Y-101150000D03*
X93200000Y-101150000D03*
X94300000Y-101150000D03*
X95500000Y-101150000D03*
X96600000Y-101150000D03*
X97700000Y-101150000D03*
X98800000Y-101150000D03*
X99900000Y-101200000D03*
D63*
X101000000Y-100650000D03*
D64*
X86400000Y-100650000D03*
D65*
X101000000Y-90650000D03*
X85500000Y-90650000D03*
%TD*%
D19*
%TO.C,R50*%
X62900000Y-151697500D03*
X62900000Y-150502500D03*
%TD*%
D66*
%TO.C,U7*%
X40425000Y-131970000D03*
X41075000Y-131970000D03*
X41725000Y-131970000D03*
X42375000Y-131970000D03*
X42375000Y-128430000D03*
X41725000Y-128430000D03*
X41075000Y-128430000D03*
X40425000Y-128430000D03*
%TD*%
D19*
%TO.C,R34*%
X27400000Y-144697500D03*
X27400000Y-143502500D03*
%TD*%
D17*
%TO.C,C3*%
X30825000Y-121300000D03*
X32375000Y-121300000D03*
%TD*%
D13*
%TO.C,C200*%
X87700000Y-112625000D03*
X87700000Y-114175000D03*
%TD*%
%TO.C,C95*%
X60800000Y-144525000D03*
X60800000Y-146075000D03*
%TD*%
D11*
%TO.C,C16*%
X33700000Y-93675000D03*
X33700000Y-92125000D03*
%TD*%
D20*
%TO.C,R146*%
X111352500Y-114800000D03*
X112547500Y-114800000D03*
%TD*%
%TO.C,R97*%
X65777500Y-128925000D03*
X66972500Y-128925000D03*
%TD*%
D15*
%TO.C,FB12*%
X49472500Y-115585000D03*
X46497500Y-115585000D03*
%TD*%
D67*
%TO.C,L4*%
X43250000Y-113400000D03*
X40950000Y-113400000D03*
%TD*%
D13*
%TO.C,C94*%
X62275000Y-144500000D03*
X62275000Y-146050000D03*
%TD*%
D25*
%TO.C,D3*%
X49485000Y-109452500D03*
X49485000Y-111202500D03*
%TD*%
D19*
%TO.C,R141*%
X109100000Y-113197500D03*
X109100000Y-112002500D03*
%TD*%
%TO.C,R162*%
X59200000Y-118300000D03*
X59200000Y-117105000D03*
%TD*%
D22*
%TO.C,R54*%
X35297500Y-141500000D03*
X34102500Y-141500000D03*
%TD*%
D42*
%TO.C,C100*%
X32764999Y-145700000D03*
X31214999Y-145700000D03*
%TD*%
D28*
%TO.C,Y2*%
X78825000Y-128775000D03*
X78825000Y-130925000D03*
X80375000Y-130925000D03*
X80375000Y-128775000D03*
%TD*%
D20*
%TO.C,R24*%
X51305000Y-183300000D03*
X52500000Y-183300000D03*
%TD*%
D17*
%TO.C,C7*%
X29100000Y-136300000D03*
X30650000Y-136300000D03*
%TD*%
D15*
%TO.C,FB4*%
X27087500Y-134700000D03*
X24112500Y-134700000D03*
%TD*%
D20*
%TO.C,R124*%
X59017500Y-96400000D03*
X60212500Y-96400000D03*
%TD*%
D68*
%TO.C,D21*%
X40900000Y-99100000D03*
X40900000Y-95100000D03*
%TD*%
D15*
%TO.C,FB14*%
X57487500Y-186900000D03*
X54512500Y-186900000D03*
%TD*%
D19*
%TO.C,R103*%
X67800000Y-124595000D03*
X67800000Y-123400000D03*
%TD*%
D15*
%TO.C,FB1*%
X42372500Y-104085000D03*
X39397500Y-104085000D03*
%TD*%
D69*
%TO.C,F2*%
X44100000Y-100200000D03*
X44100000Y-97400000D03*
%TD*%
D19*
%TO.C,R6*%
X27400000Y-115322500D03*
X27400000Y-114127500D03*
%TD*%
D70*
%TO.C,U15*%
X92190000Y-110315000D03*
X92190000Y-111535000D03*
X93410000Y-110315000D03*
X93410000Y-111535000D03*
D71*
X90862500Y-109675000D03*
X90862500Y-110175000D03*
X90862500Y-110675000D03*
X90862500Y-111175000D03*
X90862500Y-111675000D03*
X90862500Y-112175000D03*
D72*
X91550000Y-112862500D03*
X92050000Y-112862500D03*
X92550000Y-112862500D03*
X93050000Y-112862500D03*
X93550000Y-112862500D03*
X94050000Y-112862500D03*
D71*
X94737500Y-112175000D03*
X94737500Y-111675000D03*
X94737500Y-111175000D03*
X94737500Y-110675000D03*
X94737500Y-110175000D03*
X94737500Y-109675000D03*
D72*
X94050000Y-108987500D03*
X93550000Y-108987500D03*
X93050000Y-108987500D03*
X92550000Y-108987500D03*
X92050000Y-108987500D03*
X91550000Y-108987500D03*
%TD*%
D17*
%TO.C,C2*%
X29125000Y-134800000D03*
X30675000Y-134800000D03*
%TD*%
D22*
%TO.C,R80*%
X93997500Y-119500000D03*
X92802500Y-119500000D03*
%TD*%
D20*
%TO.C,R116*%
X94000000Y-180800000D03*
X95195000Y-180800000D03*
%TD*%
D19*
%TO.C,R7*%
X27600000Y-117597500D03*
X27600000Y-116402500D03*
%TD*%
D11*
%TO.C,C175*%
X78475000Y-127170000D03*
X78475000Y-125620000D03*
%TD*%
D20*
%TO.C,R123*%
X93905000Y-187000000D03*
X95100000Y-187000000D03*
%TD*%
D73*
%TO.C,FB13*%
X33132500Y-132387500D03*
X33132500Y-129412500D03*
%TD*%
D20*
%TO.C,R143*%
X89402500Y-108100000D03*
X90597500Y-108100000D03*
%TD*%
%TO.C,R102*%
X76702500Y-136500000D03*
X77897500Y-136500000D03*
%TD*%
D19*
%TO.C,R51*%
X67500000Y-173097500D03*
X67500000Y-171902500D03*
%TD*%
D11*
%TO.C,C17*%
X32150000Y-93650000D03*
X32150000Y-92100000D03*
%TD*%
D19*
%TO.C,R145*%
X108100000Y-113197500D03*
X108100000Y-112002500D03*
%TD*%
D74*
%TO.C,U13*%
X75400000Y-132875000D03*
X75400000Y-132375000D03*
X75400000Y-131875000D03*
X75400000Y-131375000D03*
X75400000Y-130875000D03*
X75400000Y-130375000D03*
X75400000Y-129875000D03*
X75400000Y-129375000D03*
X75400000Y-128875000D03*
X75400000Y-128375000D03*
X75400000Y-127875000D03*
X75400000Y-127375000D03*
D75*
X74725000Y-133550000D03*
X74725000Y-126700000D03*
X74225000Y-133550000D03*
X74225000Y-126700000D03*
D76*
X74161300Y-132311300D03*
D77*
X74000000Y-131980500D03*
D78*
X74000000Y-130800000D03*
X74000000Y-129450000D03*
X74000000Y-128100000D03*
D79*
X73830500Y-132480500D03*
D75*
X73725000Y-133550000D03*
X73725000Y-126700000D03*
X73225000Y-133550000D03*
X73225000Y-126700000D03*
X72725000Y-133550000D03*
X72725000Y-126700000D03*
D78*
X72650000Y-132150000D03*
X72650000Y-130800000D03*
X72650000Y-129450000D03*
X72650000Y-128100000D03*
D75*
X72225000Y-133550000D03*
X72225000Y-126700000D03*
X71725000Y-133550000D03*
X71725000Y-126700000D03*
D78*
X71300000Y-132150000D03*
X71300000Y-130800000D03*
X71300000Y-129450000D03*
X71300000Y-128100000D03*
D75*
X71225000Y-133550000D03*
X71225000Y-126700000D03*
X70725000Y-133550000D03*
X70725000Y-126700000D03*
X70225000Y-133550000D03*
X70225000Y-126700000D03*
D78*
X69950000Y-132150000D03*
X69950000Y-130800000D03*
X69950000Y-129450000D03*
X69950000Y-128100000D03*
D75*
X69725000Y-133550000D03*
X69725000Y-126700000D03*
X69225000Y-133550000D03*
X69225000Y-126700000D03*
D74*
X68550000Y-132875000D03*
X68550000Y-132375000D03*
X68550000Y-131875000D03*
X68550000Y-131375000D03*
X68550000Y-130875000D03*
X68550000Y-130375000D03*
X68550000Y-129875000D03*
X68550000Y-129375000D03*
X68550000Y-128875000D03*
X68550000Y-128375000D03*
X68550000Y-127875000D03*
X68550000Y-127375000D03*
%TD*%
D56*
%TO.C,FB15*%
X79775000Y-123850000D03*
X79775000Y-121800000D03*
%TD*%
D13*
%TO.C,C112*%
X27750000Y-139875000D03*
X27750000Y-141425000D03*
%TD*%
D80*
%TO.C,C162*%
X81575000Y-131160000D03*
X81575000Y-130025000D03*
%TD*%
D19*
%TO.C,R152*%
X104300000Y-104995000D03*
X104300000Y-103800000D03*
%TD*%
D27*
%TO.C,D9*%
X110450000Y-155700000D03*
X108700000Y-155700000D03*
%TD*%
D19*
%TO.C,R18*%
X28932500Y-127397500D03*
X28932500Y-126202500D03*
%TD*%
%TO.C,R43*%
X65000000Y-175395000D03*
X65000000Y-174200000D03*
%TD*%
D27*
%TO.C,D12*%
X110450000Y-163470000D03*
X108700000Y-163470000D03*
%TD*%
D81*
%TO.C,J14*%
X54500000Y-96245000D03*
X53700000Y-96245000D03*
D82*
X52550000Y-96245000D03*
X51550000Y-96245000D03*
X51050000Y-96245000D03*
X50050000Y-96245000D03*
D81*
X48900000Y-96245000D03*
X48100000Y-96245000D03*
X48100000Y-96245000D03*
X48900000Y-96245000D03*
D82*
X49550000Y-96245000D03*
X50550000Y-96245000D03*
X52050000Y-96245000D03*
X53050000Y-96245000D03*
D81*
X53700000Y-96245000D03*
X54500000Y-96245000D03*
%TD*%
D27*
%TO.C,D4*%
X35675000Y-99600000D03*
X33925000Y-99600000D03*
%TD*%
D11*
%TO.C,C201*%
X52600000Y-124675000D03*
X52600000Y-123125000D03*
%TD*%
D20*
%TO.C,R122*%
X93905000Y-188000000D03*
X95100000Y-188000000D03*
%TD*%
D11*
%TO.C,C214*%
X36800000Y-93475000D03*
X36800000Y-91925000D03*
%TD*%
D24*
%TO.C,R26*%
X48600000Y-112502500D03*
X48600000Y-113697500D03*
%TD*%
%TO.C,R8*%
X47600000Y-112502500D03*
X47600000Y-113697500D03*
%TD*%
D42*
%TO.C,C121*%
X42675000Y-143800000D03*
X41125000Y-143800000D03*
%TD*%
D20*
%TO.C,R96*%
X65777500Y-129925000D03*
X66972500Y-129925000D03*
%TD*%
D83*
%TO.C,U5*%
X41000000Y-185300000D03*
X41000000Y-185800000D03*
X41000000Y-186300000D03*
X41000000Y-186800000D03*
D84*
X41685000Y-187485000D03*
X42185000Y-187485000D03*
X42685000Y-187485000D03*
X43185000Y-187485000D03*
D83*
X43870000Y-186800000D03*
X43870000Y-186300000D03*
X43870000Y-185800000D03*
X43870000Y-185300000D03*
D84*
X43185000Y-184615000D03*
X42685000Y-184615000D03*
X42185000Y-184615000D03*
X41685000Y-184615000D03*
%TD*%
D20*
%TO.C,R82*%
X111105000Y-109700000D03*
X112300000Y-109700000D03*
%TD*%
D24*
%TO.C,R45*%
X66700001Y-149702500D03*
X66700001Y-150897500D03*
%TD*%
D17*
%TO.C,C167*%
X75400000Y-125225000D03*
X76950000Y-125225000D03*
%TD*%
D13*
%TO.C,C92*%
X43000000Y-125125000D03*
X43000000Y-126675000D03*
%TD*%
D85*
%TO.C,D6*%
X43935000Y-118085000D03*
X45685000Y-118085000D03*
%TD*%
D42*
%TO.C,C1*%
X22375000Y-173600000D03*
X20825000Y-173600000D03*
%TD*%
D15*
%TO.C,FB18*%
X42987500Y-92300000D03*
X40012500Y-92300000D03*
%TD*%
D25*
%TO.C,D23*%
X59300000Y-119727500D03*
X59300000Y-121477500D03*
%TD*%
D22*
%TO.C,R23*%
X46497500Y-111420000D03*
X45302500Y-111420000D03*
%TD*%
D86*
%TO.C,TR1*%
X64730000Y-118700000D03*
X66000000Y-118700000D03*
X67270000Y-118700000D03*
X68540000Y-118700000D03*
X69810000Y-118700000D03*
X71080000Y-118700000D03*
X72350000Y-118700000D03*
X73620000Y-118700000D03*
X74890000Y-118700000D03*
X76160000Y-118700000D03*
X77430000Y-118700000D03*
X78700000Y-118700000D03*
X78700000Y-104100000D03*
X77430000Y-104100000D03*
X76160000Y-104100000D03*
X74890000Y-104100000D03*
X73620000Y-104100000D03*
X72350000Y-104100000D03*
X71080000Y-104100000D03*
X69810000Y-104100000D03*
X68540000Y-104100000D03*
X67270000Y-104100000D03*
X66000000Y-104100000D03*
X64730000Y-104100000D03*
%TD*%
D11*
%TO.C,C128*%
X40400001Y-150155000D03*
X40400001Y-148605000D03*
%TD*%
D36*
%TO.C,U3*%
X31370000Y-114745000D03*
X30870000Y-114745000D03*
X30370000Y-114745000D03*
X29870000Y-114745000D03*
D37*
X29185000Y-115430000D03*
X29185000Y-115930000D03*
X29185000Y-116430000D03*
X29185000Y-116930000D03*
D36*
X29870000Y-117615000D03*
X30370000Y-117615000D03*
X30870000Y-117615000D03*
X31370000Y-117615000D03*
D37*
X32055000Y-116930000D03*
X32055000Y-116430000D03*
X32055000Y-115930000D03*
X32055000Y-115430000D03*
%TD*%
D11*
%TO.C,C96*%
X22400000Y-149175000D03*
X22400000Y-147625000D03*
%TD*%
D87*
%TO.C,U1*%
X26800000Y-172800000D03*
X26800000Y-172300000D03*
X26800000Y-171800000D03*
X26800000Y-171300000D03*
D88*
X26115000Y-170615000D03*
X25615000Y-170615000D03*
X25115000Y-170615000D03*
X24615000Y-170615000D03*
D87*
X23930000Y-171300000D03*
X23930000Y-171800000D03*
X23930000Y-172300000D03*
X23930000Y-172800000D03*
D88*
X24615000Y-173485000D03*
X25115000Y-173485000D03*
X25615000Y-173485000D03*
X26115000Y-173485000D03*
%TD*%
D66*
%TO.C,U16*%
X105625000Y-107470000D03*
X106275000Y-107470000D03*
X106925000Y-107470000D03*
X107575000Y-107470000D03*
X107575000Y-103930000D03*
X106925000Y-103930000D03*
X106275000Y-103930000D03*
X105625000Y-103930000D03*
%TD*%
D20*
%TO.C,R125*%
X59017500Y-97500000D03*
X60212500Y-97500000D03*
%TD*%
D61*
%TO.C,C13*%
X29767500Y-118900000D03*
X28632500Y-118900000D03*
%TD*%
D89*
%TO.C,D1*%
X27150000Y-94200000D03*
X21650000Y-94200000D03*
%TD*%
D24*
%TO.C,R28*%
X38100000Y-117400000D03*
X38100000Y-118595000D03*
%TD*%
D90*
%TO.C,U14*%
X49825000Y-131925000D03*
X49825000Y-133175000D03*
X51075000Y-131925000D03*
X51075000Y-133175000D03*
D91*
X48500000Y-131300000D03*
X48500000Y-131800000D03*
X48500000Y-132300000D03*
X48500000Y-132800000D03*
X48500000Y-133300000D03*
X48500000Y-133800000D03*
D92*
X49200000Y-134500000D03*
X49700000Y-134500000D03*
X50200000Y-134500000D03*
X50700000Y-134500000D03*
X51200000Y-134500000D03*
X51700000Y-134500000D03*
D91*
X52400000Y-133800000D03*
X52400000Y-133300000D03*
X52400000Y-132800000D03*
X52400000Y-132300000D03*
X52400000Y-131800000D03*
X52400000Y-131300000D03*
D92*
X51700000Y-130600000D03*
X51200000Y-130600000D03*
X50700000Y-130600000D03*
X50200000Y-130600000D03*
X49700000Y-130600000D03*
X49200000Y-130600000D03*
%TD*%
D93*
%TO.C,Y4*%
X57200000Y-127100000D03*
X54660000Y-127100000D03*
X54660000Y-129300000D03*
X57200000Y-129300000D03*
%TD*%
D24*
%TO.C,R106*%
X85000000Y-109402500D03*
X85000000Y-110597500D03*
%TD*%
D20*
%TO.C,R147*%
X111302500Y-113300000D03*
X112497500Y-113300000D03*
%TD*%
D15*
%TO.C,FB3*%
X28587500Y-121400000D03*
X25612500Y-121400000D03*
%TD*%
%TO.C,FB11*%
X38887500Y-120500000D03*
X35912500Y-120500000D03*
%TD*%
D22*
%TO.C,R90*%
X108672500Y-154370000D03*
X107477500Y-154370000D03*
%TD*%
D57*
%TO.C,C199*%
X54500000Y-125162500D03*
X54500000Y-122037500D03*
%TD*%
D22*
%TO.C,R138*%
X101100000Y-107200000D03*
X99905000Y-107200000D03*
%TD*%
D15*
%TO.C,FB6*%
X28287500Y-96700000D03*
X25312500Y-96700000D03*
%TD*%
D94*
%TO.C,U11*%
X98900000Y-129100000D03*
X99400000Y-129100000D03*
X99900000Y-129100000D03*
X100400000Y-129100000D03*
X100900000Y-129100000D03*
X101400000Y-129100000D03*
X101900000Y-129100000D03*
X102400000Y-129100000D03*
X102900000Y-129100000D03*
X103400000Y-129100000D03*
X103900000Y-129100000D03*
X104400000Y-129100000D03*
X104900000Y-129100000D03*
X105400000Y-129100000D03*
X98900000Y-129600000D03*
X99400000Y-129600000D03*
X99900000Y-129600000D03*
X100400000Y-129600000D03*
X100900000Y-129600000D03*
X101400000Y-129600000D03*
X101900000Y-129600000D03*
X102400000Y-129600000D03*
X102900000Y-129600000D03*
X103400000Y-129600000D03*
X103900000Y-129600000D03*
X104400000Y-129600000D03*
X104900000Y-129600000D03*
X105400000Y-129600000D03*
X98900000Y-130100000D03*
X99400000Y-130100000D03*
X99900000Y-130100000D03*
X100400000Y-130100000D03*
X100900000Y-130100000D03*
X101400000Y-130100000D03*
X101900000Y-130100000D03*
X102400000Y-130100000D03*
X102900000Y-130100000D03*
X103400000Y-130100000D03*
X103900000Y-130100000D03*
X104400000Y-130100000D03*
X104900000Y-130100000D03*
X105400000Y-130100000D03*
X98900000Y-130600000D03*
X99400000Y-130600000D03*
X99900000Y-130600000D03*
X100400000Y-130600000D03*
X104400000Y-130600000D03*
X104900000Y-130600000D03*
X105400000Y-130600000D03*
X98900000Y-131100000D03*
X99400000Y-131100000D03*
X99900000Y-131100000D03*
X100900000Y-131100000D03*
X101400000Y-131100000D03*
X101900000Y-131100000D03*
X102400000Y-131100000D03*
X102900000Y-131100000D03*
X103400000Y-131100000D03*
X104400000Y-131100000D03*
X104900000Y-131100000D03*
X105400000Y-131100000D03*
X98900000Y-131600000D03*
X99400000Y-131600000D03*
X99900000Y-131600000D03*
X100900000Y-131600000D03*
X103400000Y-131600000D03*
X104400000Y-131600000D03*
X104900000Y-131600000D03*
X105400000Y-131600000D03*
X98900000Y-132100000D03*
X99400000Y-132100000D03*
X99900000Y-132100000D03*
X100900000Y-132100000D03*
X103400000Y-132100000D03*
X104400000Y-132100000D03*
X104900000Y-132100000D03*
X105400000Y-132100000D03*
X98900000Y-132600000D03*
X99400000Y-132600000D03*
X99900000Y-132600000D03*
X100900000Y-132600000D03*
X103400000Y-132600000D03*
X104400000Y-132600000D03*
X104900000Y-132600000D03*
X105400000Y-132600000D03*
X98900000Y-133100000D03*
X99400000Y-133100000D03*
X99900000Y-133100000D03*
X100900000Y-133100000D03*
X103400000Y-133100000D03*
X104400000Y-133100000D03*
X104900000Y-133100000D03*
X105400000Y-133100000D03*
X98900000Y-133600000D03*
X99400000Y-133600000D03*
X99900000Y-133600000D03*
X100900000Y-133600000D03*
X101400000Y-133600000D03*
X101900000Y-133600000D03*
X102400000Y-133600000D03*
X102900000Y-133600000D03*
X103400000Y-133600000D03*
X104400000Y-133600000D03*
X104900000Y-133600000D03*
X105400000Y-133600000D03*
X98900000Y-134100000D03*
X99400000Y-134100000D03*
X99900000Y-134100000D03*
X104400000Y-134100000D03*
X104900000Y-134100000D03*
X105400000Y-134100000D03*
X98900000Y-134600000D03*
X99400000Y-134600000D03*
X99900000Y-134600000D03*
X100400000Y-134600000D03*
X100900000Y-134600000D03*
X101400000Y-134600000D03*
X101900000Y-134600000D03*
X102400000Y-134600000D03*
X102900000Y-134600000D03*
X103400000Y-134600000D03*
X103900000Y-134600000D03*
X104400000Y-134600000D03*
X104900000Y-134600000D03*
X105400000Y-134600000D03*
X98900000Y-135100000D03*
X99400000Y-135100000D03*
X99900000Y-135100000D03*
X100400000Y-135100000D03*
X100900000Y-135100000D03*
X101400000Y-135100000D03*
X101900000Y-135100000D03*
X102400000Y-135100000D03*
X102900000Y-135100000D03*
X103400000Y-135100000D03*
X103900000Y-135100000D03*
X104400000Y-135100000D03*
X104900000Y-135100000D03*
X105400000Y-135100000D03*
X98900000Y-135600000D03*
X99400000Y-135600000D03*
X99900000Y-135600000D03*
X100400000Y-135600000D03*
X100900000Y-135600000D03*
X101400000Y-135600000D03*
X101900000Y-135600000D03*
X102400000Y-135600000D03*
X102900000Y-135600000D03*
X103400000Y-135600000D03*
X103900000Y-135600000D03*
X104400000Y-135600000D03*
X104900000Y-135600000D03*
X105400000Y-135600000D03*
%TD*%
D12*
%TO.C,C142*%
X33700000Y-175837500D03*
X33700000Y-178962500D03*
%TD*%
D20*
%TO.C,R19*%
X27637500Y-128500000D03*
X28832500Y-128500000D03*
%TD*%
D19*
%TO.C,R9*%
X47515000Y-111417500D03*
X47515000Y-110222500D03*
%TD*%
%TO.C,R150*%
X59400000Y-128797500D03*
X59400000Y-127602500D03*
%TD*%
D20*
%TO.C,R35*%
X40705000Y-133500000D03*
X41900000Y-133500000D03*
%TD*%
D42*
%TO.C,C32*%
X26475000Y-92300000D03*
X24925000Y-92300000D03*
%TD*%
D19*
%TO.C,R105*%
X86000000Y-110597500D03*
X86000000Y-109402500D03*
%TD*%
D27*
%TO.C,D10*%
X110450000Y-158290000D03*
X108700000Y-158290000D03*
%TD*%
D20*
%TO.C,R113*%
X59017500Y-95200000D03*
X60212500Y-95200000D03*
%TD*%
D42*
%TO.C,C107*%
X32864999Y-151700000D03*
X31314999Y-151700000D03*
%TD*%
D24*
%TO.C,R88*%
X97300000Y-116540000D03*
X97300000Y-117735000D03*
%TD*%
%TO.C,R22*%
X46615000Y-112502500D03*
X46615000Y-113697500D03*
%TD*%
D20*
%TO.C,R144*%
X105702500Y-109000000D03*
X106897500Y-109000000D03*
%TD*%
D95*
%TO.C,C25*%
X34100000Y-117137500D03*
X34100000Y-115062500D03*
%TD*%
D42*
%TO.C,C87*%
X23800000Y-150800000D03*
X22250000Y-150800000D03*
%TD*%
D22*
%TO.C,R56*%
X35297500Y-144700000D03*
X34102500Y-144700000D03*
%TD*%
D17*
%TO.C,C5*%
X46425000Y-184600000D03*
X47975000Y-184600000D03*
%TD*%
D33*
%TO.C,D8*%
X67400000Y-181275000D03*
X67400000Y-179525000D03*
%TD*%
D13*
%TO.C,C132*%
X38600000Y-176350000D03*
X38600000Y-177900000D03*
%TD*%
D19*
%TO.C,R85*%
X107200000Y-118397500D03*
X107200000Y-117202500D03*
%TD*%
D11*
%TO.C,C179*%
X79975000Y-127100000D03*
X79975000Y-125550000D03*
%TD*%
D20*
%TO.C,R118*%
X94000000Y-182800000D03*
X95195000Y-182800000D03*
%TD*%
%TO.C,R115*%
X94000000Y-179800000D03*
X95195000Y-179800000D03*
%TD*%
D19*
%TO.C,R47*%
X67100000Y-178197500D03*
X67100000Y-177002500D03*
%TD*%
M02*
